<svg width="35" height="31" viewBox="0 0 35 31" fill="none" xmlns="http://www.w3.org/2000/svg">
<g clip-path="url(#clip0_2001_1215)">
<mask id="mask0_2001_1215" style="mask-type:luminance" maskUnits="userSpaceOnUse" x="0" y="0" width="35" height="31">
<path d="M34.0563 0.71875H0.90625V30.7188H34.0563V0.71875Z" fill="white"/>
</mask>
<g mask="url(#mask0_2001_1215)">
<path fill-rule="evenodd" clip-rule="evenodd" d="M33.7623 14.2773C34.1496 14.9479 34.1496 15.7741 33.7623 16.4448L26.5597 28.9195C26.1724 29.5901 25.4567 30.0033 24.6822 30.0033H10.2768C9.50234 30.0033 8.78669 29.5901 8.39938 28.9195L1.19673 16.4448C0.809423 15.7741 0.809423 14.9479 1.19673 14.2773L8.39938 1.80256C8.78669 1.1319 9.50234 0.71875 10.2768 0.71875H24.6822C25.4567 0.71875 26.1724 1.1319 26.5597 1.80256L33.7623 14.2773ZM27.4046 10.0241C27.6942 9.95508 27.9384 10.2461 27.82 10.5192L25.8325 15.104C25.7257 15.3505 25.3968 15.3984 25.2241 15.1926L24.4858 14.3127L19.8811 18.3391C19.4319 18.7318 18.7498 18.6878 18.355 18.2407L15.3032 14.7844L11.793 17.8398C11.8361 18.0162 11.8589 18.2006 11.8589 18.3904C11.8589 19.6672 10.8238 20.7024 9.54667 20.7024C8.2697 20.7024 7.23437 19.6672 7.23437 18.3904C7.23437 17.1133 8.2697 16.0781 9.54667 16.0781C9.82934 16.0781 10.1002 16.1288 10.3505 16.2217L14.6917 12.4427C15.1409 12.0517 15.8215 12.0964 16.2157 12.5429L19.2661 15.9972L23.0921 12.6518L22.3512 11.7689C22.1785 11.5632 22.2826 11.2476 22.5439 11.1853L27.4046 10.0241Z" fill="white"/>
</g>
</g>
<defs>
<clipPath id="clip0_2001_1215">
<rect width="34" height="30" fill="white" transform="translate(0.90625 0.71875)"/>
</clipPath>
</defs>
</svg>
