<svg width="31" height="31" viewBox="0 0 31 31" fill="none" xmlns="http://www.w3.org/2000/svg">
<g clip-path="url(#clip0_2001_1222)">
<mask id="mask0_2001_1222" style="mask-type:luminance" maskUnits="userSpaceOnUse" x="0" y="0" width="31" height="31">
<path d="M30.9062 0.0488281H0.90625V30.0488H30.9062V0.0488281Z" fill="white"/>
</mask>
<g mask="url(#mask0_2001_1222)">
<path d="M10.8966 28.8329C10.8971 29.0005 10.9321 29.1662 10.9995 29.3197C11.0669 29.4732 11.1652 29.6111 11.2882 29.7249C11.4113 29.8386 11.5565 29.9258 11.7148 29.9809C11.873 30.0361 12.0409 30.0579 12.2079 30.0452C18.5582 29.5906 24.5559 25.0965 26.4706 18.0772C26.5713 17.6735 26.8742 17.471 27.2777 17.471C27.4846 17.4794 27.6798 17.5689 27.8211 17.7203C27.9625 17.8716 28.0385 18.0726 28.0327 18.2797C28.0327 19.8448 26.0208 23.9352 23.1439 26.3089C22.9973 26.4322 22.8804 26.5871 22.802 26.7619C22.7234 26.9368 22.6855 27.1271 22.6908 27.3187C22.6937 27.4745 22.7273 27.6282 22.7897 27.7709C22.8521 27.9137 22.942 28.0427 23.0544 28.1506C23.1668 28.2585 23.2994 28.3431 23.4445 28.3997C23.5897 28.4563 23.7445 28.4835 23.9002 28.4801C24.1522 28.4801 24.5557 28.3286 25.0599 27.874C27.0718 26.0555 30.9062 20.9553 30.9062 15.3495C30.9062 7.13089 24.5522 0.0488281 15.6848 0.0488281C7.77238 0.0488281 0.917969 6.5129 0.917969 13.9869C0.917969 18.9355 4.84931 22.6719 10.0398 22.6719C14.0221 22.6719 17.7014 19.8448 18.7097 15.9556C18.8103 15.5519 19.1121 15.3495 19.5156 15.3495C19.7226 15.3578 19.918 15.4474 20.0595 15.5987C20.201 15.75 20.2773 15.9509 20.2719 16.1581C20.2719 17.9257 16.9452 24.0902 10.1913 24.0902C8.57831 24.0902 6.56293 23.6356 5.15107 22.827C4.96208 22.7354 4.7562 22.6838 4.54638 22.6755C4.38567 22.6693 4.22544 22.6965 4.07574 22.7552C3.92603 22.814 3.79015 22.9031 3.67657 23.017C3.56298 23.1308 3.47416 23.267 3.41569 23.4168C3.35722 23.5667 3.3304 23.727 3.33687 23.8878C3.3434 24.0937 3.4024 24.2945 3.50822 24.4713C3.61404 24.648 3.76321 24.7947 3.94162 24.8977C5.80671 25.9632 8.02443 26.5136 10.2919 26.5136C15.9369 26.5136 21.0778 22.6755 22.5902 17.02C22.6908 16.6163 22.9937 16.4138 23.396 16.4138C23.603 16.4222 23.7985 16.5116 23.94 16.663C24.0815 16.8143 24.1578 17.0153 24.1523 17.2224C24.1523 19.5452 20.0198 27.0192 12.0564 27.6253C11.7483 27.6482 11.4595 27.7841 11.2455 28.007C11.0314 28.2299 10.9071 28.524 10.8966 28.8329Z" fill="#4B4B4C"/>
<path d="M18.7895 9.49277C19.8764 9.48471 20.9434 9.78517 21.8664 10.3594C21.9597 9.84864 22.0111 9.33118 22.0202 8.81207C22.0202 6.41464 20.193 4.26709 17.9682 4.26709C16.238 4.26709 15.1563 5.70077 15.1563 7.47186C15.1481 8.42867 15.4842 9.35648 16.1031 10.0859C16.9417 9.68594 17.8605 9.48306 18.7895 9.49277Z" fill="#79797A"/>
<path d="M24.0021 18.1778C24.3109 17.1217 24.4471 16.3889 24.4471 15.913C24.4377 15.7075 24.3495 15.5134 24.201 15.371C24.0526 15.2286 23.8552 15.1489 23.6495 15.1482C23.4579 15.1518 23.2729 15.2193 23.1241 15.34C22.9752 15.4608 22.8711 15.6279 22.8281 15.8147C22.7441 16.1616 22.5642 17.1016 22.3867 17.6983C22.46 17.4749 22.5272 17.248 22.5879 17.0175C22.6885 16.6127 22.9915 16.4114 23.3939 16.4114C23.6007 16.4194 23.796 16.5087 23.9375 16.6598C24.0791 16.8109 24.1554 17.0118 24.15 17.2188C24.1405 17.5442 24.0883 17.8671 23.9949 18.1789L24.0021 18.1778Z" fill="#2C2C2D"/>
<path d="M28.2838 17.0746C28.2741 16.8694 28.1861 16.6757 28.038 16.5334C27.8898 16.3911 27.6927 16.3111 27.4874 16.3098C27.296 16.3136 27.1113 16.3813 26.9627 16.502C26.8142 16.6228 26.7102 16.7897 26.6672 16.9763C26.582 17.3315 26.3987 18.2857 26.2188 18.8812H26.2271C26.3147 18.616 26.3963 18.3473 26.4638 18.0738C26.5644 17.6689 26.8672 17.4676 27.2708 17.4676C27.4776 17.4756 27.6729 17.5649 27.8143 17.7161C27.9557 17.8673 28.0317 18.0681 28.0259 18.275C28.0201 18.5264 27.9855 18.7763 27.9228 19.0197C28.1737 18.1389 28.2838 17.5019 28.2838 17.0746Z" fill="#2C2C2D"/>
<path d="M18.7863 9.49286C19.3265 9.49181 19.8643 9.56386 20.3851 9.70716C20.6585 9.33416 20.7952 8.87829 20.772 8.41624C20.7489 7.95424 20.5674 7.51431 20.258 7.17049C19.9486 6.82667 19.5303 6.59997 19.0735 6.52856C18.6166 6.45709 18.1491 6.54527 17.7496 6.77821L18.578 8.14206L17.0266 7.47078C16.8164 7.81001 16.711 8.20377 16.7236 8.60264C16.7363 9.00158 16.8663 9.38787 17.0976 9.7131C17.6481 9.56463 18.2161 9.49057 18.7863 9.49286Z" fill="#2C2C2D"/>
<path d="M6.83579 18.2703C7.48937 18.2703 8.01919 17.7403 8.01919 17.0865C8.01919 16.4326 7.48937 15.9026 6.83579 15.9026C6.18216 15.9026 5.65234 16.4326 5.65234 17.0865C5.65234 17.7403 6.18216 18.2703 6.83579 18.2703Z" fill="#2C2C2D"/>
<path d="M6.83579 13.5345C7.48937 13.5345 8.01919 13.0045 8.01919 12.3506C8.01919 11.6968 7.48937 11.1667 6.83579 11.1667C6.18216 11.1667 5.65234 11.6968 5.65234 12.3506C5.65234 13.0045 6.18216 13.5345 6.83579 13.5345Z" fill="#2C2C2D"/>
<path d="M4.46861 15.9025C5.12218 15.9025 5.65206 15.3725 5.65206 14.7186C5.65206 14.0648 5.12218 13.5347 4.46861 13.5347C3.81503 13.5347 3.28516 14.0648 3.28516 14.7186C3.28516 15.3725 3.81503 15.9025 4.46861 15.9025Z" fill="#2C2C2D"/>
<path d="M9.7938 22.6696H10.0305C14.0127 22.6696 17.692 19.8425 18.7003 15.9534C18.8009 15.5496 19.1028 15.3472 19.5063 15.3472C19.7133 15.3555 19.9086 15.445 20.0501 15.5964C20.1916 15.7477 20.2679 15.9486 20.2624 16.1558C20.2443 16.569 20.1509 16.9755 19.9867 17.3551C20.0152 17.311 20.0403 17.2647 20.0613 17.2166C20.3608 16.5319 20.5155 15.7926 20.5158 15.0453C20.5158 13.8839 19.7087 13.1262 18.5501 13.1262C16.53 13.1262 16.1252 14.8902 15.2732 16.7762C14.3891 18.7343 12.7655 20.8523 8.67077 20.8523C4.41631 20.8523 0.044736 17.8724 1.11101 11.8132C1.12401 11.7375 1.13466 11.67 1.14295 11.6072C0.986719 12.3901 0.907426 13.1863 0.90625 13.9845C0.918073 18.8622 4.72754 22.5559 9.7938 22.6696Z" fill="#2C2C2D"/>
</g>
</g>
<defs>
<clipPath id="clip0_2001_1222">
<rect width="30" height="30" fill="white" transform="translate(0.90625 0.0488281)"/>
</clipPath>
</defs>
</svg>
