<svg width="31" height="31" viewBox="0 0 31 31" fill="none" xmlns="http://www.w3.org/2000/svg">
<g clip-path="url(#clip0_2001_1237)">
<mask id="mask0_2001_1237" style="mask-type:luminance" maskUnits="userSpaceOnUse" x="0" y="0" width="31" height="31">
<path d="M30.9062 0.378906H0.90625V30.3789H30.9062V0.378906Z" fill="white"/>
</mask>
<g mask="url(#mask0_2001_1237)">
<path fill-rule="evenodd" clip-rule="evenodd" d="M6.80789 0.378906H25.0047C28.264 0.378906 30.9062 3.02116 30.9062 6.28055V24.4773C30.9062 27.7366 28.264 30.3789 25.0047 30.3789H6.80789C3.5485 30.3789 0.90625 27.7366 0.90625 24.4773V6.28055C0.90625 3.02116 3.5485 0.378906 6.80789 0.378906ZM14.9776 9.51459C15.2744 9.11771 15.9056 9.32761 15.9056 9.82315V16.8957H10.4869C10.0626 16.8957 9.82018 16.4116 10.0742 16.0718L14.9776 9.51459ZM16.835 20.9801C16.538 21.377 15.9062 21.1671 15.9062 20.6716V13.5991H21.3297C21.7543 13.5991 21.997 14.0831 21.7425 14.4229L16.835 20.9801Z" fill="#4B4B4C"/>
</g>
</g>
<defs>
<clipPath id="clip0_2001_1237">
<rect width="30" height="30" fill="white" transform="translate(0.90625 0.378906)"/>
</clipPath>
</defs>
</svg>
