<svg width="142" height="31" viewBox="0 0 142 31" fill="none" xmlns="http://www.w3.org/2000/svg">
<g clip-path="url(#clip0_2001_1062)">
<mask id="mask0_2001_1062" style="mask-type:luminance" maskUnits="userSpaceOnUse" x="0" y="0" width="142" height="31">
<path d="M141.25 0.375H0.25V30.375H141.25V0.375Z" fill="white"/>
</mask>
<g mask="url(#mask0_2001_1062)">
<path d="M51.7183 0.837891H54.3659V24.5159H51.7183V22.4275H51.6524C50.6589 23.7191 49.0701 24.9776 46.3543 24.9776C42.116 24.9776 38.7383 21.6331 38.7383 16.0699C38.7383 10.5068 42.116 7.16225 46.3543 7.16225C49.0701 7.16225 50.6589 8.35447 51.6524 9.81185H51.7183V0.837891ZM51.7183 16.0699C51.7183 12.0968 49.7654 9.48033 46.6195 9.48033C43.1424 9.48033 41.3867 12.7586 41.3867 16.0699C41.3867 19.3813 43.1424 22.6595 46.6195 22.6595C49.7654 22.6595 51.7183 20.0431 51.7183 16.0699Z" fill="#4B4B4C"/>
<path d="M64.2513 9.48043C61.039 9.48043 59.9784 10.4075 59.8137 12.8581H57.1644C57.3303 9.61308 59.3496 7.16235 64.2513 7.16235C67.463 7.16235 70.3436 8.42086 70.3436 12.4899V20.7027C70.3436 22.0274 70.58 22.7555 72.2635 22.5566V24.4118C71.7659 24.596 71.2382 24.6856 70.7083 24.6758C69.1183 24.6758 68.1577 24.2461 67.6948 22.3909H67.6242C66.5642 23.9808 64.6772 24.9742 61.8961 24.9742C58.4855 24.9742 56.332 23.0207 56.332 20.1722C56.332 16.3317 59.179 15.3384 63.5537 14.5108C66.4024 13.9805 67.6971 13.6158 67.6971 11.9276C67.6948 10.6064 66.966 9.48043 64.2513 9.48043ZM67.6948 17.9903V15.1762C67.1977 15.6723 65.5748 16.1363 63.7884 16.501C60.509 17.1959 58.9814 18.0235 58.9814 20.0432C58.9814 21.7006 59.9749 22.6596 62.1613 22.6596C65.3107 22.6596 67.6948 21.2354 67.6948 17.9903Z" fill="#4B4B4C"/>
<path d="M85.6206 7.62646H88.2705V23.5866C88.2705 28.0854 85.4229 30.3751 80.7865 30.3751C76.1507 30.3751 73.4014 27.9244 73.1378 25.0475H75.7943C76.126 26.769 77.5172 28.0606 80.6624 28.0606C83.8082 28.0606 85.6288 26.7026 85.6288 23.5618V21.0045H85.5629C84.5694 22.4607 82.9806 23.6529 80.1983 23.6529C76.0266 23.6529 72.6484 20.9714 72.6484 15.4082C72.6484 9.84507 76.0266 7.16235 80.1983 7.16235C82.9806 7.16235 84.5694 8.42086 85.5629 9.71249H85.6288L85.6206 7.62646ZM85.6206 15.4082C85.6206 11.4339 83.6671 9.48043 80.5218 9.48043C77.0442 9.48043 75.2902 12.0969 75.2902 15.4082C75.2902 18.7196 77.0442 21.3348 80.5218 21.3348C83.6718 21.3348 85.6206 19.3814 85.6206 15.4082Z" fill="#4B4B4C"/>
<path d="M104.551 19.8787C104.551 22.9568 101.737 24.9777 97.8948 24.9777C92.7296 24.9777 90.3456 22.527 90.1797 18.8853H92.8291C92.9938 20.7725 93.6579 22.6596 97.8948 22.6596C100.775 22.6596 101.901 21.1691 101.901 20.0432C101.901 17.5937 99.6825 17.4611 97.2666 16.8644C94.6831 16.2358 90.8414 15.9374 90.8414 11.9643C90.8414 9.31473 93.1926 7.16235 97.1672 7.16235C101.372 7.16235 103.624 9.54673 103.888 12.4603H101.239C100.974 11.1699 100.346 9.48043 97.1672 9.48043C94.7825 9.48043 93.4967 10.4406 93.4967 11.7654C93.4967 13.7519 95.7819 13.9177 98.1331 14.4812C101.14 15.2093 104.551 15.7054 104.551 19.8787Z" fill="#4B4B4C"/>
<path d="M113.506 9.94434H110.191V20.1093C110.191 22.0308 111.256 22.3587 113.506 22.1965V24.5158C112.853 24.6524 112.187 24.7191 111.519 24.7147C109.27 24.7147 107.545 23.8208 107.545 20.3769V9.94669H105.059V7.62626H107.545V1.99683H110.194V7.62626H113.509L113.506 9.94434Z" fill="#4B4B4C"/>
<path d="M127.584 19.3151H130.233C129.371 22.4607 126.955 24.9777 122.75 24.9777C117.616 24.9777 114.504 21.368 114.504 16.07C114.504 10.4406 117.683 7.16235 122.617 7.16235C127.915 7.16235 130.498 10.7721 130.498 16.765H117.153C117.153 19.8124 118.974 22.6596 122.65 22.6596C126.028 22.6596 127.285 20.4741 127.584 19.3151ZM117.153 14.4528H127.849C127.849 11.737 125.796 9.48043 122.617 9.48043C119.439 9.48043 117.153 11.7299 117.153 14.4528Z" fill="#4B4B4C"/>
<path d="M141.425 7.2616V9.9112H141.359C137.689 9.31927 135.134 11.8978 135.134 15.5075V24.5158H132.484V7.62624H135.134V10.9708H135.2C136.094 8.75216 137.45 7.16219 139.87 7.16219C140.39 7.15678 140.91 7.19001 141.425 7.2616Z" fill="#4B4B4C"/>
<path d="M10.2404 29.1591C10.2409 29.3267 10.2759 29.4924 10.3433 29.6459C10.4107 29.7994 10.509 29.9373 10.632 30.0511C10.7551 30.1648 10.9002 30.252 11.0585 30.3071C11.2167 30.3623 11.3846 30.3841 11.5516 30.3714C17.9019 29.9168 23.8996 25.4227 25.8143 18.4034C25.915 17.9997 26.2179 17.7972 26.6214 17.7972C26.8283 17.8056 27.0236 17.8951 27.1649 18.0465C27.3063 18.1978 27.3823 18.3988 27.3765 18.6059C27.3765 20.171 25.3646 24.2614 22.4877 26.6351C22.3411 26.7584 22.2242 26.9133 22.1458 27.0881C22.0672 27.263 22.0292 27.4533 22.0345 27.6449C22.0374 27.8007 22.0711 27.9544 22.1335 28.0971C22.1959 28.2399 22.2858 28.3689 22.3982 28.4768C22.5106 28.5847 22.6431 28.6693 22.7882 28.7259C22.9334 28.7825 23.0883 28.8097 23.244 28.8063C23.496 28.8063 23.8995 28.6548 24.4037 28.2002C26.4156 26.3817 30.2499 21.2815 30.2499 15.6757C30.2499 7.45706 23.896 0.375 15.0286 0.375C7.11613 0.375 0.261719 6.83907 0.261719 14.3131C0.261719 19.2617 4.19306 22.9981 9.38356 22.9981C13.3658 22.9981 17.0451 20.171 18.0534 16.2818C18.154 15.8781 18.4558 15.6757 18.8593 15.6757C19.0663 15.684 19.2617 15.7736 19.4032 15.9249C19.5447 16.0762 19.621 16.2771 19.6156 16.4843C19.6156 18.2519 16.2889 24.4164 9.53509 24.4164C7.92206 24.4164 5.90668 23.9618 4.49482 23.1532C4.30583 23.0616 4.09995 23.01 3.89013 23.0017C3.72942 22.9955 3.56919 23.0227 3.41949 23.0814C3.26978 23.1402 3.1339 23.2293 3.02032 23.3432C2.90673 23.457 2.81791 23.5932 2.75944 23.743C2.70097 23.8929 2.67415 24.0532 2.68062 24.214C2.68715 24.4199 2.74615 24.6207 2.85197 24.7975C2.95779 24.9742 3.10696 25.1209 3.28537 25.2239C5.15046 26.2894 7.36818 26.8398 9.63568 26.8398C15.2806 26.8398 20.4215 23.0017 21.9339 17.3462C22.0345 16.9425 22.3375 16.74 22.7398 16.74C22.9468 16.7484 23.1422 16.8378 23.2837 16.9892C23.4252 17.1405 23.5015 17.3415 23.496 17.5486C23.496 19.8714 19.3635 27.3454 11.4002 27.9515C11.0921 27.9744 10.8032 28.1103 10.5892 28.3332C10.3751 28.5561 10.2509 28.8502 10.2404 29.1591Z" fill="#4B4B4C"/>
<path d="M18.1333 9.81894C19.2202 9.81088 20.2872 10.1113 21.2102 10.6856C21.3035 10.1748 21.3549 9.65735 21.364 9.13824C21.364 6.74081 19.5368 4.59326 17.312 4.59326C15.5818 4.59326 14.5001 6.02694 14.5001 7.79803C14.4919 8.75484 14.828 9.68265 15.4469 10.4121C16.2855 10.0121 17.2043 9.80923 18.1333 9.81894Z" fill="#79797A"/>
<path d="M23.3459 18.504C23.6547 17.4479 23.7908 16.7151 23.7908 16.2392C23.7814 16.0337 23.6933 15.8396 23.5448 15.6972C23.3964 15.5548 23.1989 15.4751 22.9932 15.4744C22.8016 15.478 22.6167 15.5455 22.4679 15.6662C22.319 15.787 22.2149 15.9541 22.1719 16.1409C22.0879 16.4878 21.908 17.4278 21.7305 18.0245C21.8038 17.8011 21.8709 17.5742 21.9316 17.3437C22.0322 16.9389 22.3352 16.7376 22.7376 16.7376C22.9444 16.7456 23.1398 16.8349 23.2813 16.986C23.4229 17.1371 23.4992 17.338 23.4938 17.545C23.4843 17.8704 23.4321 18.1933 23.3387 18.5051L23.3459 18.504Z" fill="#2C2C2D"/>
<path d="M27.6276 17.4008C27.6179 17.1956 27.5299 17.0019 27.3818 16.8596C27.2336 16.7173 27.0365 16.6373 26.8312 16.636C26.6398 16.6398 26.4551 16.7075 26.3065 16.8282C26.158 16.949 26.054 17.1159 26.011 17.3025C25.9258 17.6577 25.7424 18.6119 25.5625 19.2074H25.5708C25.6584 18.9422 25.74 18.6735 25.8075 18.4C25.9081 17.9951 26.211 17.7938 26.6146 17.7938C26.8214 17.8018 27.0166 17.8911 27.158 18.0423C27.2994 18.1935 27.3754 18.3943 27.3696 18.6012C27.3638 18.8526 27.3293 19.1025 27.2666 19.3459C27.5175 18.4651 27.6276 17.8281 27.6276 17.4008Z" fill="#2C2C2D"/>
<path d="M18.1301 9.81903C18.6703 9.81798 19.2081 9.89003 19.7289 10.0333C20.0023 9.66033 20.139 9.20446 20.1158 8.74241C20.0927 8.28041 19.9112 7.84048 19.6018 7.49666C19.2924 7.15284 18.8741 6.92614 18.4173 6.85473C17.9604 6.78326 17.4929 6.87144 17.0934 7.10438L17.9218 8.46823L16.3704 7.79695C16.1602 8.13618 16.0548 8.52994 16.0674 8.92881C16.0801 9.32775 16.2101 9.71404 16.4414 10.0393C16.9919 9.8908 17.5599 9.81674 18.1301 9.81903Z" fill="#2C2C2D"/>
<path d="M6.17954 18.5965C6.83312 18.5965 7.36294 18.0665 7.36294 17.4127C7.36294 16.7588 6.83312 16.2288 6.17954 16.2288C5.52591 16.2288 4.99609 16.7588 4.99609 17.4127C4.99609 18.0665 5.52591 18.5965 6.17954 18.5965Z" fill="#2C2C2D"/>
<path d="M6.17954 13.8607C6.83312 13.8607 7.36294 13.3307 7.36294 12.6768C7.36294 12.023 6.83312 11.4929 6.17954 11.4929C5.52591 11.4929 4.99609 12.023 4.99609 12.6768C4.99609 13.3307 5.52591 13.8607 6.17954 13.8607Z" fill="#2C2C2D"/>
<path d="M3.81236 16.2286C4.46593 16.2286 4.99581 15.6986 4.99581 15.0447C4.99581 14.3909 4.46593 13.8608 3.81236 13.8608C3.15878 13.8608 2.62891 14.3909 2.62891 15.0447C2.62891 15.6986 3.15878 16.2286 3.81236 16.2286Z" fill="#2C2C2D"/>
<path d="M9.13755 22.9958H9.37426C13.3565 22.9958 17.0358 20.1686 18.0441 16.2795C18.1447 15.8757 18.4465 15.6733 18.85 15.6733C19.057 15.6816 19.2524 15.7711 19.3939 15.9225C19.5354 16.0738 19.6117 16.2747 19.6062 16.4819C19.5881 16.8951 19.4947 17.3016 19.3305 17.6812C19.359 17.6371 19.384 17.5908 19.405 17.5427C19.7045 16.858 19.8592 16.1187 19.8595 15.3714C19.8595 14.21 19.0524 13.4523 17.8938 13.4523C15.8737 13.4523 15.4689 15.2164 14.6169 17.1024C13.7328 19.0605 12.1092 21.1784 8.01452 21.1784C3.76006 21.1784 -0.611514 18.1985 0.454762 12.1393C0.467761 12.0636 0.478407 11.9961 0.486701 11.9333C0.330469 12.7162 0.251176 13.5124 0.25 14.3106C0.261823 19.1883 4.07129 22.8821 9.13755 22.9958Z" fill="#2C2C2D"/>
</g>
</g>
<defs>
<clipPath id="clip0_2001_1062">
<rect width="141" height="30" fill="white" transform="translate(0.25 0.375)"/>
</clipPath>
</defs>
</svg>
