<svg width="110" height="31" viewBox="0 0 110 31" fill="none" xmlns="http://www.w3.org/2000/svg">
<g clip-path="url(#clip0_2001_1012)">
<mask id="mask0_2001_1012" style="mask-type:luminance" maskUnits="userSpaceOnUse" x="0" y="0" width="110" height="31">
<path d="M109.25 0.375H0.25V30.375H109.25V0.375Z" fill="white"/>
</mask>
<g mask="url(#mask0_2001_1012)">
<mask id="mask1_2001_1012" style="mask-type:luminance" maskUnits="userSpaceOnUse" x="40" y="6" width="69" height="18">
<path d="M108.65 6.375H40.25V23.7258H108.65V6.375Z" fill="white"/>
</mask>
<g mask="url(#mask1_2001_1012)">
<path d="M40.25 23.4296V6.375H48.5891C50.5572 6.375 52.244 6.69129 53.6397 7.31885C55.0405 7.94642 56.1098 8.89529 56.8529 10.1605C57.596 11.4256 57.9725 13.002 57.9725 14.8897C57.9725 16.7774 57.601 18.3539 56.8529 19.6191C56.1048 20.8843 55.0355 21.8381 53.6397 22.4757C52.239 23.1134 50.5572 23.4296 48.5891 23.4296H40.25ZM44.9894 19.8049H48.4134C49.1414 19.8049 49.794 19.7044 50.3764 19.5086C50.9538 19.3078 51.4458 19.0217 51.8525 18.6401C52.2591 18.2585 52.5654 17.7866 52.7712 17.2243C52.9771 16.662 53.0825 16.0244 53.0825 15.3115V14.4931C53.0825 13.7652 52.9771 13.1226 52.7712 12.5703C52.5654 12.018 52.2591 11.5461 51.8525 11.1545C51.4458 10.7679 50.9538 10.4717 50.3764 10.2709C49.799 10.0701 49.1414 9.9747 48.4134 9.9747H44.9894V19.8049Z" fill="#4B4B4C"/>
<path d="M67.4877 23.7258C65.851 23.7258 64.4402 23.4798 63.2554 22.9928C62.0706 22.5058 61.1618 21.7578 60.5242 20.7436C59.8866 19.7345 59.5703 18.4442 59.5703 16.8728C59.5703 15.3014 59.8866 14.0613 60.5142 13.0472C61.1417 12.0381 62.0354 11.285 63.1952 10.788C64.3549 10.2909 65.7255 10.0449 67.317 10.0449C68.9085 10.0449 70.3193 10.2859 71.4639 10.7629C72.6036 11.2448 73.4772 11.9778 74.0696 12.9719C74.667 13.9659 74.9632 15.2311 74.9632 16.7724V17.7414H64.0135C64.0486 18.4341 64.1892 19.0166 64.4503 19.4784C64.7063 19.9403 65.0929 20.2917 65.605 20.5227C66.1171 20.7536 66.7547 20.8691 67.5178 20.8691C67.9496 20.8691 68.3462 20.8189 68.7077 20.7185C69.0691 20.6181 69.3955 20.4775 69.6767 20.2968C69.9578 20.1161 70.1787 19.9002 70.3343 19.6491C70.49 19.4031 70.5803 19.1119 70.5954 18.7806H74.9131C74.9131 19.5588 74.7373 20.2516 74.3909 20.8641C74.0445 21.4766 73.5425 21.9937 72.8897 22.4154C72.2371 22.8372 71.4539 23.1585 70.5452 23.3844C69.6364 23.6053 68.6173 23.7208 67.4927 23.7208L67.4877 23.7258ZM64.0386 15.4068H70.4197C70.4197 14.9951 70.3494 14.6336 70.2088 14.3274C70.0682 14.0211 69.8674 13.7601 69.6013 13.5442C69.3352 13.3284 69.024 13.1677 68.6575 13.0623C68.2909 12.9568 67.8944 12.9016 67.4676 12.9016C66.7748 12.9016 66.1824 13.002 65.7054 13.1978C65.2234 13.3986 64.8469 13.6798 64.5758 14.0563C64.3047 14.4278 64.1239 14.8796 64.0436 15.4068H64.0386Z" fill="#4B4B4C"/>
<path d="M77.1328 23.4294V10.346H80.6572L80.9534 12.3592H81.1542C81.5508 11.8321 82.0127 11.3953 82.5299 11.0539C83.052 10.7125 83.6193 10.4615 84.2318 10.2958C84.8443 10.1301 85.4719 10.0498 86.1195 10.0498C87.229 10.0498 88.1579 10.2356 88.9109 10.6071C89.664 10.9786 90.2363 11.5409 90.6229 12.294C91.0095 13.0471 91.2053 14.0009 91.2053 15.1606V23.4294H86.8626V15.7581C86.8626 15.3615 86.8074 15.0101 86.7019 14.7038C86.5965 14.3976 86.4408 14.1465 86.2451 13.9457C86.0442 13.7449 85.7932 13.5993 85.4869 13.4989C85.1807 13.3985 84.8393 13.3483 84.4577 13.3483C83.8954 13.3483 83.3884 13.4738 82.9315 13.7198C82.4746 13.9658 82.1181 14.3021 81.852 14.7239C81.586 15.1456 81.4555 15.6276 81.4555 16.1748V23.4244H77.1378L77.1328 23.4294Z" fill="#4B4B4C"/>
<path d="M100.875 23.7258C99.2685 23.7258 97.8828 23.4747 96.718 22.9677C95.5533 22.4606 94.6546 21.7076 94.022 20.6984C93.3944 19.6893 93.0781 18.4141 93.0781 16.8728C93.0781 15.3315 93.3944 14.0613 94.022 13.0472C94.6495 12.0381 95.5482 11.285 96.718 10.788C97.8828 10.2909 99.2685 10.0449 100.875 10.0449C102.482 10.0449 103.867 10.2909 105.032 10.788C106.197 11.285 107.096 12.0381 107.728 13.0472C108.355 14.0563 108.672 15.3315 108.672 16.8728C108.672 18.4141 108.355 19.6843 107.728 20.6984C107.101 21.7076 106.202 22.4656 105.032 22.9677C103.867 23.4747 102.477 23.7258 100.875 23.7258ZM100.875 20.6984C101.638 20.6984 102.271 20.5578 102.773 20.2767C103.28 19.9955 103.652 19.5989 103.893 19.0868C104.134 18.5747 104.254 17.9623 104.254 17.2493V16.5314C104.254 15.8185 104.134 15.201 103.893 14.6839C103.652 14.1617 103.28 13.7651 102.773 13.494C102.266 13.2229 101.633 13.0823 100.875 13.0823C100.117 13.0823 99.4592 13.2179 98.9622 13.494C98.4652 13.7651 98.0986 14.1617 97.8577 14.6839C97.6167 15.206 97.4962 15.8235 97.4962 16.5314V17.2493C97.4962 17.9623 97.6167 18.5747 97.8577 19.0868C98.0986 19.5989 98.4652 19.9955 98.9622 20.2767C99.4592 20.5578 100.097 20.6984 100.875 20.6984Z" fill="#4B4B4C"/>
</g>
<mask id="mask2_2001_1012" style="mask-type:luminance" maskUnits="userSpaceOnUse" x="0" y="0" width="31" height="31">
<path d="M30.25 0.375H0.25V30.375H30.25V0.375Z" fill="white"/>
</mask>
<g mask="url(#mask2_2001_1012)">
<path fill-rule="evenodd" clip-rule="evenodd" d="M15.25 0.375C23.5343 0.375 30.25 7.09072 30.25 15.375C30.25 23.6593 23.5343 30.375 15.25 30.375C6.96572 30.375 0.25 23.6593 0.25 15.375C0.25 7.09072 6.96572 0.375 15.25 0.375ZM14.913 22.7144C14.5283 22.6107 14.1326 22.8334 14.02 23.2131L14.015 23.2308L13.0189 26.9222L13.0144 26.94C12.9206 27.3248 13.1506 27.7164 13.5353 27.8201C13.9199 27.924 14.3156 27.7013 14.4282 27.3215L14.4332 27.3039L15.4292 23.6125L15.4338 23.5946C15.4406 23.5669 15.4457 23.539 15.4492 23.5112L15.4521 23.4834L15.4285 23.3638L15.394 23.1916L15.3722 23.0841C15.3255 22.994 15.2606 22.9146 15.1815 22.8509C15.1025 22.7873 15.011 22.7408 14.913 22.7144ZM7.97191 18.9129C7.95375 18.9491 7.93834 18.9873 7.92609 19.0272L7.91918 19.0513L6.92309 22.7427L6.91851 22.7606C6.82476 23.1454 7.05475 23.5369 7.43941 23.6407C7.82402 23.7445 8.21977 23.5219 8.33238 23.1421L8.3373 23.1244L9.24047 19.7773C8.76744 19.5268 8.34287 19.2378 7.97191 18.9129ZM5.59658 14.6679C5.21191 14.5641 4.81617 14.7867 4.70361 15.1665L4.69863 15.1842L3.70254 18.8756L3.69797 18.8934C3.60422 19.2782 3.8342 19.6697 4.21887 19.7735C4.60348 19.8773 4.99922 19.6547 5.11183 19.2749L5.11676 19.2572L6.11285 15.5658L6.11742 15.548C6.21117 15.1632 5.98125 14.7717 5.59658 14.6679ZM27.9315 13.8296C27.5468 13.7258 27.151 13.9484 27.0385 14.3282L27.0335 14.3459L26.0374 18.0373L26.0328 18.0551C25.9391 18.4399 26.1691 18.8314 26.5537 18.9352C26.9384 19.039 27.3341 18.8164 27.4467 18.4366L27.4516 18.4189L28.4477 14.7275L28.4523 14.7097C28.546 14.3249 28.3161 13.9334 27.9315 13.8296ZM3.42732 8.90027C2.59312 10.4194 2.06194 12.0862 1.86328 13.8079C1.95831 13.9162 2.08332 13.994 2.22252 14.0313C2.60719 14.1352 3.00293 13.9125 3.11549 13.5327L3.12047 13.5151L4.11656 9.82365L4.12113 9.80584C4.21488 9.42099 3.9849 9.02947 3.60023 8.9257C3.54381 8.91047 3.48574 8.90194 3.42732 8.90027ZM25.4085 8.9257C25.0239 8.82187 24.6281 9.04453 24.5155 9.42433L24.5106 9.44197L23.5145 13.1334L23.5099 13.1512C23.4162 13.536 23.6461 13.9276 24.0308 14.0313C24.4154 14.1352 24.8112 13.9125 24.9238 13.5327L24.9287 13.5151L25.9248 9.82365L25.9294 9.80584C26.0231 9.42099 25.7931 9.02947 25.4085 8.9257ZM6.87025 5.91429C6.98286 5.53448 7.37861 5.31182 7.76322 5.41565C8.14788 5.51942 8.37786 5.91095 8.28411 6.29579L8.27954 6.3136L7.28345 10.005L7.27853 10.0226C7.16591 10.4024 6.77017 10.6251 6.38556 10.5213C6.00089 10.4175 5.77091 10.026 5.86466 9.64114L5.86923 9.62333L6.86532 5.93192L6.87025 5.91429ZM19.669 6.61208C19.7816 6.23227 20.1773 6.00962 20.562 6.11345C20.9467 6.21721 21.1766 6.60874 21.0828 6.99358L21.0783 7.01139L20.2957 9.91143L20.2313 9.86339C19.8421 9.57626 19.4283 9.32415 18.9947 9.10999L19.664 6.62971L19.669 6.61208ZM12.6547 2.14817C13.1151 2.05838 13.58 1.99271 14.0472 1.95142C14.0713 2.06033 14.07 2.17331 14.0435 2.28165L14.0389 2.29946L13.0428 5.99087L13.0379 6.0085C12.9253 6.38831 12.5296 6.61096 12.1449 6.50714C11.7603 6.40337 11.5303 6.01184 11.624 5.627L11.6286 5.60919L12.557 2.16763L12.6547 2.14817ZM23.0173 5.22669L23.213 4.5013L23.2995 4.56522C23.7015 4.86509 24.0866 5.18705 24.4529 5.52962L24.4315 5.60831L24.4266 5.62595C24.314 6.00575 23.9182 6.22841 23.5336 6.12458C23.149 6.02081 22.919 5.62929 23.0127 5.24444L23.0173 5.22669ZM17.0643 3.38093L17.4176 2.07177L17.5218 2.08905C17.9694 2.16501 18.4128 2.26367 18.8504 2.38466L18.4786 3.76261L18.4737 3.78024C18.361 4.16005 17.9653 4.3827 17.5807 4.27888C17.196 4.17511 16.966 3.78358 17.0598 3.39874L17.0643 3.38093ZM9.94109 25.0003C10.0536 24.6205 10.4494 24.3979 10.834 24.5016C11.2187 24.6053 11.4486 24.9969 11.3549 25.3818L11.3503 25.3996L10.6374 28.0414L10.5378 28.0047C10.1086 27.8444 9.68789 27.6623 9.27734 27.4589L9.93611 25.0179L9.94109 25.0003ZM6.91016 15.0267C6.91016 11.6118 10.3032 8.86584 14.6651 8.86584C16.7632 8.86584 18.5628 9.44668 19.9793 10.5544C21.74 11.9314 22.4054 13.8268 22.9747 15.8838L25.2586 24.4011C23.1173 26.7557 20.1949 28.3168 17.0344 28.7346C16.8447 27.4453 16.5992 26.1607 16.3545 24.8805C16.3422 24.8159 16.3298 24.7513 16.3175 24.6867C16.2716 24.4464 16.2238 24.1942 16.1753 23.9386C15.9211 22.597 15.6491 21.1614 15.5366 20.8484C15.4027 20.4758 15.2837 20.1993 14.8721 20.2081C10.0322 20.3112 6.91016 18.2519 6.91016 15.0267Z" fill="#4B4B4C"/>
<path d="M15.6016 11.332C16.1194 11.332 16.5391 11.7517 16.5391 12.2695C16.5391 12.7873 16.1194 13.207 15.6016 13.207C15.0838 13.207 14.6641 12.7873 14.6641 12.2695C14.6641 11.7517 15.0838 11.332 15.6016 11.332Z" fill="#4B4B4C"/>
</g>
</g>
</g>
<defs>
<clipPath id="clip0_2001_1012">
<rect width="109" height="30" fill="white" transform="translate(0.25 0.375)"/>
</clipPath>
</defs>
</svg>
