<svg width="133" height="31" viewBox="0 0 133 31" fill="none" xmlns="http://www.w3.org/2000/svg">
<g clip-path="url(#clip0_2001_1091)">
<mask id="mask0_2001_1091" style="mask-type:luminance" maskUnits="userSpaceOnUse" x="0" y="0" width="133" height="31">
<path d="M132.75 0.375H0.75V30.375H132.75V0.375Z" fill="white"/>
</mask>
<g mask="url(#mask0_2001_1091)">
<path d="M132.309 14.9479V28.6097C132.309 28.9234 132.223 29.0145 131.904 29.0195H127.755C127.456 29.0195 127.37 28.9285 127.365 28.5894V17.3159C127.365 16.8099 127.213 16.6531 126.707 16.6531H123.707C123.621 16.648 123.53 16.648 123.444 16.6531C123.115 16.7037 123.029 16.8049 123.029 17.159V28.0632C123.029 28.2656 123.003 28.4629 122.983 28.6653C122.983 28.8576 122.821 29.0145 122.629 29.0094C122.619 29.0094 122.609 29.0094 122.599 29.0094H118.252C118.05 29.0246 117.873 28.8728 117.853 28.6704C117.822 28.5237 117.802 28.3769 117.797 28.2302V14.7404C117.797 10.4395 117.807 6.13851 117.827 1.83251V1.12412C117.802 0.764864 118.075 0.456208 118.434 0.430908C118.465 0.430908 118.495 0.430908 118.531 0.430908C119.801 0.430908 121.076 0.451148 122.346 0.486567C122.7 0.471388 122.993 0.749684 123.009 1.09882C123.009 1.12918 123.009 1.15954 123.009 1.1899V8.27381C123.009 9.45277 122.998 10.6317 122.978 11.8158C122.978 12.0384 123.059 12.1447 123.282 12.1497H126.733C127.193 12.1497 127.239 12.0991 127.239 11.6437V1.42266C127.239 0.749684 127.583 0.582706 128.084 0.572586H131.428C131.6 0.577646 131.772 0.613066 131.934 0.673785C132.157 0.754744 132.309 0.962201 132.314 1.20002V14.9479H132.309Z" fill="#4B4B4C"/>
<path d="M0.75 14.801V1.09865C0.75 0.688799 0.841077 0.59266 1.25599 0.59266C3.82639 0.59266 6.40186 0.531941 8.97227 0.59266C10.8748 0.557241 12.671 1.44779 13.7943 2.98095C14.5078 3.94234 14.9024 5.11118 14.9176 6.31039C14.9682 9.85234 15.0289 13.4398 15.0542 17.002C15.0542 18.4846 15.0188 19.9671 14.953 21.4497C14.9227 22.4313 14.8265 23.4079 14.6646 24.3744C14.361 25.862 13.4249 27.1421 12.0993 27.8809C11.2441 28.4122 10.298 28.7816 9.31128 28.9688C9.21009 28.989 9.10383 28.9991 8.99757 28.9991H1.14973C0.77024 28.9991 0.75 28.9991 0.75 28.5943V14.801ZM5.84022 14.6542V23.7621C5.84022 24.2377 6.01225 24.4553 6.48788 24.4755H8.45617C8.91661 24.4958 9.33658 24.1973 9.46814 23.757C9.66547 23.2713 9.79703 22.7602 9.85775 22.2391C9.93871 21.0399 9.94883 19.8356 9.95895 18.6313C9.9893 15.3474 10.0095 12.0635 10.0247 8.77963C10.0247 8.07124 9.9893 7.36285 9.91847 6.65446C9.91847 6.09281 9.59969 5.5767 9.09371 5.33382C8.23353 4.9948 7.30758 4.8683 6.38668 4.96444C5.8807 5.00998 5.85034 5.096 5.85034 5.61211C5.85034 8.6329 5.84528 11.6537 5.84528 14.6745V14.6542H5.84022Z" fill="#4B4B4C"/>
<path d="M97.3599 12.0081V22.7048C97.3751 25.6294 95.3359 28.1594 92.4771 28.7767C90.9187 29.1512 89.2843 29.1107 87.7461 28.6553C85.4135 27.9317 84.0676 26.2771 83.5009 23.9546C83.3947 23.484 83.339 23.0033 83.3441 22.5226V1.27092C83.3441 0.648548 83.5414 0.45121 84.1536 0.44615L87.5488 0.410731C87.6702 0.410731 87.7917 0.425911 87.9131 0.45121C88.1914 0.506869 88.3887 0.759866 88.3634 1.04322V11.2137C88.3634 14.7556 88.3635 18.2976 88.414 21.8396C88.4292 22.3101 88.5304 22.7756 88.7176 23.2057C89.082 24.0254 89.9725 24.4758 90.8478 24.2936C91.6726 24.2076 92.3304 23.5549 92.4215 22.7301C92.4721 22.3506 92.4923 21.9661 92.4822 21.5815V0.926844C92.4569 0.648548 92.6643 0.405671 92.9426 0.380371C92.973 0.380371 92.9983 0.380371 93.0286 0.380371H96.692C97.1423 0.380371 97.3396 0.597948 97.3396 1.05334C97.3548 4.7218 97.3599 8.37001 97.3599 12.0081Z" fill="#4B4B4C"/>
<path d="M66.5273 14.2496V6.00193C66.5273 3.644 67.6962 2.02482 69.8011 1.04825C70.7118 0.648518 71.6935 0.436 72.6852 0.42588C74.0159 0.324682 75.3568 0.49672 76.6218 0.931874C78.4636 1.55425 79.8145 3.13801 80.1333 5.05572C80.1738 5.30872 80.194 5.56171 80.189 5.81471V16.8555C80.189 18.753 80.2396 20.6555 80.1282 22.5429C80.0979 24.496 79.2225 26.3429 77.7248 27.6028C76.7685 28.3567 75.6047 28.802 74.3904 28.888C73.176 29.0246 71.9465 28.9234 70.7726 28.5794C68.5968 27.9823 66.9929 26.1455 66.6943 23.909C66.5628 22.9527 66.5172 21.9863 66.5526 21.0249C66.5273 18.7833 66.5273 16.5165 66.5273 14.2496ZM75.2961 14.619V7.05945C75.3062 6.5231 75.124 5.99687 74.7901 5.57689C74.0817 4.75718 72.842 4.66105 72.0224 5.36944C71.8807 5.49087 71.7592 5.62749 71.658 5.78435C71.4152 6.18409 71.2887 6.64454 71.2937 7.11005V21.8598C71.2786 22.4164 71.405 22.9679 71.6631 23.4587C72.0021 24.1165 72.7155 24.496 73.4492 24.415C74.1576 24.4403 74.8053 24.0102 75.0532 23.3423C75.2151 22.9173 75.3011 22.472 75.3113 22.0166C75.3315 19.5373 75.3214 17.0781 75.3214 14.619H75.2961Z" fill="#4B4B4C"/>
<path d="M34.184 13.4704V19.5018C34.1435 20.6606 34.2548 21.8193 34.5078 22.9477C34.6292 23.3069 34.7962 23.6459 35.0138 23.9597C35.1858 24.2025 35.4591 24.3493 35.7576 24.3493C36.2585 24.3948 36.7594 24.3341 37.2351 24.1722C37.5842 24.0608 37.8574 23.7927 37.9738 23.4486C38.2116 22.7706 38.328 22.0521 38.328 21.3335C38.328 20.5088 38.328 19.684 38.2926 18.8592C38.3128 18.6012 38.1205 18.3735 37.8625 18.3532C37.8372 18.3532 37.8119 18.3532 37.7866 18.3532C37.3464 18.3279 36.9112 18.3077 36.471 18.2925C35.9903 18.2925 35.8234 18.1255 35.8132 17.6499C35.793 16.6936 35.7778 15.7373 35.7677 14.7809C35.7677 14.4318 35.874 14.3205 36.2231 14.3205H42.467C42.8667 14.3205 43.0337 14.5026 43.0337 14.9378C43.0337 18.7125 43.0185 22.4872 42.9831 26.267C42.9831 26.8185 42.9831 27.3751 42.9476 27.9266C42.9476 28.2505 42.8363 28.3213 42.5125 28.3264C42.0369 28.3264 41.5612 28.3264 41.0907 28.3264C40.5847 28.3264 40.4025 28.1543 40.3266 27.6483C40.2659 27.2537 40.1445 27.1019 39.851 27.1019C39.7346 27.1019 39.6183 27.1525 39.5373 27.2334C38.7834 28.1088 37.7107 28.6451 36.557 28.721C35.4945 28.888 34.4066 28.7818 33.3946 28.4124C31.7451 27.8001 30.4549 26.4846 29.8831 24.8198C29.7111 24.2835 29.6099 23.7218 29.5896 23.1602C29.4479 21.3234 29.3012 19.4867 29.2304 17.6499C29.1696 16.0358 29.2 14.4166 29.2304 12.8025C29.2202 10.9151 29.3417 9.03285 29.5896 7.16573C29.7313 6.17904 29.9438 5.20247 30.2322 4.24615C30.6927 2.89514 31.735 1.81738 33.0759 1.31645C34.27 0.769972 35.5805 0.532155 36.891 0.633354C39.679 0.861051 41.9863 2.90526 42.5327 5.65281C42.6441 6.37132 42.7048 7.09995 42.7098 7.82858C42.7402 8.63311 42.7098 9.4427 42.7098 10.2523C42.7098 10.7583 42.5682 10.8898 42.0723 10.8898H38.6265C38.2217 10.8898 38.0649 10.733 38.0649 10.313V7.73244C38.0649 7.16067 37.9333 6.59396 37.6854 6.07278C37.2705 5.15188 36.1877 4.73696 35.2668 5.15188C35.1757 5.19235 35.0897 5.24295 35.0037 5.29355C34.5179 5.56679 34.2244 6.08796 34.2346 6.64456C34.2346 7.7881 34.1991 8.92659 34.189 10.0701C34.1789 11.2137 34.189 12.337 34.189 13.4704H34.184Z" fill="#4B4B4C"/>
<path d="M52.5775 18.8186H54.2624C54.5357 18.773 54.7988 18.9602 54.8443 19.2335C54.8494 19.2739 54.8545 19.3144 54.8494 19.3549C54.8949 20.4175 54.9101 21.4801 54.9658 22.5376C54.9809 22.8665 55.0467 23.1954 55.1631 23.5041C55.3756 24.1011 55.917 24.516 56.5495 24.5666C57.0403 24.6527 57.5463 24.6324 58.032 24.5009C58.533 24.3693 58.9074 23.9645 59.0035 23.4585C59.1958 22.5983 59.1958 21.7078 59.0035 20.8476C58.7708 19.9874 58.3103 19.2082 57.6779 18.5807C56.0385 16.8351 54.3991 15.0843 52.7495 13.3437C51.4846 12.018 50.6902 10.3179 50.4777 8.50135C50.2449 6.76073 50.5688 4.98975 51.4036 3.44141C52.2436 1.78682 53.8627 0.668571 55.7096 0.471233C57.8752 0.111978 60.0863 0.769769 61.7055 2.25739C62.8187 3.24914 63.4663 4.66086 63.4916 6.14848C63.5422 7.16047 63.6232 8.17245 63.689 9.18444V9.49816C63.689 9.85235 63.5625 9.96873 63.2083 9.97885C62.085 9.97885 60.9617 10.0396 59.8384 10.0396C59.2919 10.0396 59.1199 9.83717 59.0845 9.28564C59.0491 8.73411 59.044 8.07631 58.9681 7.47418C58.9023 6.96313 58.8011 6.45208 58.6595 5.9562C58.4368 5.20733 57.6779 4.75194 56.9138 4.90374C55.6337 5.07071 55.3554 5.75886 55.2339 6.92771C55.1631 7.64116 55.3402 8.35461 55.7399 8.95168C56.5799 10.2268 57.5412 11.4209 58.5987 12.524C59.5196 13.536 60.4658 14.5024 61.4171 15.479C62.7428 16.8401 63.5928 18.5959 63.8306 20.4833C64.0533 21.7381 64.0128 23.0234 63.7143 24.263C63.4259 25.3206 62.9047 26.3022 62.1963 27.1371C61.3918 28.0175 60.309 28.6045 59.13 28.7917C57.7689 29.1712 56.3269 29.1459 54.9809 28.7259C52.6888 28.0226 50.9837 26.1049 50.5435 23.7469C50.2753 22.2947 50.2348 20.8122 50.4321 19.3498C50.4726 18.9906 50.6042 18.9046 50.9381 18.8995H52.5978L52.5775 18.8186Z" fill="#4B4B4C"/>
<path d="M105.086 17.0781V5.51611C105.107 5.23781 104.899 4.99494 104.621 4.9747C104.586 4.9747 104.555 4.9747 104.52 4.9747H101.676C101.367 4.9747 101.064 4.9747 100.755 4.93422C100.446 4.89374 100.381 4.81784 100.381 4.53954C100.381 3.39094 100.371 2.23727 100.355 1.08867C100.355 0.97735 100.366 0.860971 100.386 0.749653C100.396 0.552315 100.568 0.405577 100.76 0.420757C100.77 0.420757 100.775 0.420757 100.786 0.420757H114.326C114.857 0.420757 115.019 0.572555 115.019 1.10385V4.50412C115.019 4.8735 114.918 4.9747 114.553 4.9747H110.89C110.384 5 110.177 5.22263 110.177 5.72357V16.6834C110.177 20.615 110.161 24.5516 110.136 28.4832C110.136 28.893 110.035 28.9891 109.63 28.9891H105.466C105.127 28.9891 105.041 28.8981 105.041 28.5742V17.0629L105.086 17.0781Z" fill="#4B4B4C"/>
<path d="M25.4484 0.587642H26.5059C27.0979 0.587642 27.3813 0.936777 27.189 1.51361C26.9057 2.36874 26.5818 3.21375 26.2631 4.04358C25.6002 5.78925 24.9323 7.52987 24.2644 9.27555C24.1379 9.6095 24.1936 9.6854 24.5629 9.69552C25.16 9.69552 25.7571 9.69552 26.3491 9.7866C26.8551 9.81696 27.2447 10.2521 27.2143 10.7581C27.2092 10.8694 27.1789 10.9807 27.1334 11.087C27.0271 11.3855 26.9057 11.674 26.769 11.9573C24.1126 17.9027 21.4511 23.8482 18.7896 29.8037C18.7188 29.9656 18.6176 30.1124 18.5012 30.2389C18.309 30.4514 18.1066 30.416 18.0458 30.1275C17.9952 29.8644 17.9952 29.5912 18.0458 29.3281C18.7188 25.4775 19.3968 21.6218 20.0698 17.7712C20.1963 17.0729 20.3177 16.3746 20.4442 15.6764C20.51 15.3171 20.4999 15.2817 20.1305 15.2564C19.5891 15.221 19.0426 15.2159 18.5012 15.1906L17.7625 15.1501C17.1857 15.0894 16.7657 14.5733 16.8214 13.9965C16.8214 13.9762 16.8264 13.9509 16.8315 13.9307C17.2261 12.2913 17.5753 10.6367 17.9548 8.99219C18.5114 6.56848 19.073 4.14984 19.6397 1.73119C19.7105 1.16953 20.2064 0.75462 20.7731 0.795099C22.3315 0.69896 23.89 0.633181 25.4484 0.531982V0.587642Z" fill="#4B4B4C"/>
</g>
</g>
<defs>
<clipPath id="clip0_2001_1091">
<rect width="132" height="30" fill="white" transform="translate(0.75 0.375)"/>
</clipPath>
</defs>
</svg>
