<svg width="22" height="22" viewBox="0 0 22 22" fill="none" xmlns="http://www.w3.org/2000/svg">
<g clip-path="url(#clip0_2001_1615)">
<path d="M19.8319 10.6356C19.9234 5.38966 15.745 1.06279 10.4991 0.971218C5.2532 0.87965 0.926319 5.05807 0.834751 10.304C0.743184 15.5499 4.9216 19.8768 10.1675 19.9683C15.4134 20.0599 19.7403 15.8815 19.8319 10.6356Z" fill="url(#paint0_linear_2001_1615)"/>
<path d="M19.8319 10.6356C19.9234 5.38966 15.745 1.06279 10.4991 0.971218C5.2532 0.87965 0.926319 5.05807 0.834751 10.304C0.743184 15.5499 4.9216 19.8768 10.1675 19.9683C15.4134 20.0599 19.7403 15.8815 19.8319 10.6356Z" stroke="url(#paint1_radial_2001_1615)"/>
<path fill-rule="evenodd" clip-rule="evenodd" d="M4.33307 6.46973C4.33307 5.36516 5.2285 4.46973 6.33307 4.46973H14.3331C15.4376 4.46973 16.3331 5.36516 16.3331 6.46973V14.4697C16.3331 15.5743 15.4376 16.4697 14.3331 16.4697H6.33307C5.2285 16.4697 4.33307 15.5743 4.33307 14.4697V6.46973ZM5.6664 6.46973C5.6664 6.10154 5.96488 5.80306 6.33307 5.80306H6.99974V7.1364C6.99974 7.50459 6.70126 7.80306 6.33307 7.80306C5.96488 7.80306 5.6664 7.50459 5.6664 7.1364V6.46973ZM8.99974 7.80306C8.63155 7.80306 8.33307 7.50459 8.33307 7.1364V5.80306H9.66641V7.1364C9.66641 7.50459 9.36793 7.80306 8.99974 7.80306ZM11.6664 7.80306C11.2982 7.80306 10.9997 7.50459 10.9997 7.1364V5.80306H12.3331V7.1364C12.3331 7.50459 12.0346 7.80306 11.6664 7.80306ZM14.3331 7.80306C13.9649 7.80306 13.6664 7.50459 13.6664 7.1364V5.80306H14.3331C14.7012 5.80306 14.9997 6.10154 14.9997 6.46973V7.1364C14.9997 7.50459 14.7012 7.80306 14.3331 7.80306ZM8.99974 13.1364C8.99974 12.7682 9.29822 12.4698 9.66641 12.4698H10.9997C11.3679 12.4698 11.6664 12.7682 11.6664 13.1364V15.1364H12.9997V13.1364C12.9997 12.0318 12.1043 11.1364 10.9997 11.1364H9.66641C8.56184 11.1364 7.66641 12.0318 7.66641 13.1364V15.1364H8.99974V13.1364Z" fill="white"/>
</g>
<defs>
<linearGradient id="paint0_linear_2001_1615" x1="10.5168" y1="0.462799" x2="10.1677" y2="20.4598" gradientUnits="userSpaceOnUse">
<stop stop-color="#5E6AD2"/>
<stop offset="1" stop-color="#5790FF"/>
</linearGradient>
<radialGradient id="paint1_radial_2001_1615" cx="0" cy="0" r="1" gradientUnits="userSpaceOnUse" gradientTransform="translate(9.66762 0.447976) rotate(88.5684) scale(20.018 21.9333)">
<stop stop-color="white" stop-opacity="0.48"/>
<stop offset="1" stop-color="white" stop-opacity="0.04"/>
</radialGradient>
<clipPath id="clip0_2001_1615">
<rect width="21" height="21" fill="white" transform="translate(0.160217 0.296875)"/>
</clipPath>
</defs>
</svg>
