<svg width="227" height="64" viewBox="0 0 227 64" fill="none" xmlns="http://www.w3.org/2000/svg">
<path d="M215.741 19.1736L15.1951 1.76442C9.18707 1.24287 3.89378 5.69054 3.37222 11.6986L1.48348 33.4556C0.961918 39.4636 5.40959 44.7569 11.4176 45.2784L211.964 62.6876C217.972 63.2092 223.265 58.7615 223.787 52.7535L225.676 30.9964C226.197 24.9884 221.749 19.6951 215.741 19.1736Z" fill="#1B1B1B" fill-opacity="0.8"/>
<path d="M215.741 19.1736L15.1951 1.76442C9.18707 1.24287 3.89378 5.69054 3.37222 11.6986L1.48348 33.4556C0.961918 39.4636 5.40959 44.7569 11.4176 45.2784L211.964 62.6876C217.972 63.2092 223.265 58.7615 223.787 52.7535L225.676 30.9964C226.197 24.9884 221.749 19.6951 215.741 19.1736Z" stroke="white" stroke-opacity="0.08" stroke-linecap="round"/>
<path d="M32.6966 10.5909L18.1917 9.33172C14.1863 8.98402 10.6575 11.9491 10.3098 15.9545L9.05059 30.4592C8.70288 34.4645 11.668 37.9934 15.6734 38.3411L30.1783 39.6002C34.1837 39.9479 37.7126 36.9828 38.0603 32.9775L39.3194 18.4728C39.6671 14.4674 36.702 10.9386 32.6966 10.5909Z" fill="#2B2B2B" fill-opacity="0.8"/>
<g filter="url(#filter0_i_2001_590)">
<path fill-rule="evenodd" clip-rule="evenodd" d="M23.6761 31.7283C23.0755 31.6737 22.6323 31.1423 22.6878 30.5418L23.08 26.2386L19.0553 28.1185C18.5093 28.3742 17.8586 28.1377 17.6039 27.5917C17.3482 27.0448 17.5848 26.3951 18.1308 26.1403L22.0044 24.3304L18.4665 21.8562C17.9715 21.5105 17.8514 20.8298 18.1972 20.3357C18.543 19.8416 19.2236 19.7215 19.7177 20.0664L23.4076 22.647L23.8125 18.2174C23.8671 17.6168 24.3986 17.1746 24.9991 17.2292C25.5997 17.2838 26.0419 17.8151 25.9873 18.4157L25.6006 22.6507L29.3433 20.9017C29.8902 20.6469 30.5399 20.8826 30.7947 21.4295C31.0504 21.9754 30.8138 22.6252 30.2678 22.8809L26.3559 24.7081L29.8601 27.1576C30.3542 27.5034 30.4744 28.184 30.1295 28.6782C29.7837 29.1723 29.103 29.2933 28.6089 28.9475L25.2412 26.5934L24.8626 30.7401C24.808 31.3407 24.2766 31.7829 23.6761 31.7283Z" fill="white"/>
</g>
<path d="M54.7133 15.4911L55.9109 15.5949L55.4595 20.7989C55.4113 21.3521 55.2384 21.8317 54.9418 22.2366C54.6442 22.6388 54.2493 22.9418 53.757 23.1456C53.2647 23.3467 52.7015 23.4205 52.0681 23.3649C51.4375 23.3103 50.897 23.1411 50.4466 22.8581C49.9962 22.5724 49.6595 22.2066 49.4366 21.7589C49.2136 21.3084 49.1263 20.8071 49.1745 20.2529L49.6259 15.0498L50.8197 15.1526L50.3765 20.2602C50.3447 20.6178 50.3957 20.9426 50.5294 21.2347C50.665 21.5268 50.8706 21.7653 51.1482 21.95C51.4257 22.1329 51.7633 22.2411 52.1628 22.2757C52.565 22.3103 52.918 22.2621 53.2228 22.1301C53.5304 21.9964 53.7734 21.7962 53.9517 21.5314C54.1328 21.2675 54.2393 20.9563 54.2702 20.5978L54.7133 15.4911ZM61.5944 19.5404L60.5307 19.6351C60.4988 19.4976 60.4406 19.3639 60.356 19.2347C60.2732 19.1055 60.1558 18.9954 60.0029 18.9044C59.8501 18.8134 59.6535 18.7569 59.4142 18.7369C59.0875 18.7078 58.8082 18.7579 58.5761 18.8853C58.345 19.0108 58.2194 19.1883 58.1994 19.4176C58.1821 19.6159 58.2413 19.7815 58.3778 19.9153C58.5142 20.0491 58.7426 20.1692 59.0629 20.2748L59.9866 20.5732C60.5216 20.7461 60.912 20.9763 61.1568 21.2621C61.4015 21.5478 61.5062 21.9008 61.4698 22.3203C61.4388 22.6761 61.3078 22.9837 61.0776 23.2439C60.851 23.5024 60.5471 23.6935 60.1676 23.819C59.7909 23.9446 59.3632 23.9864 58.8846 23.9455C58.2194 23.8873 57.6898 23.6989 57.2949 23.3786C56.9 23.0565 56.677 22.6288 56.6279 22.0947L57.759 22.0218C57.8036 22.3194 57.9273 22.5515 58.1302 22.7198C58.334 22.8854 58.6098 22.9828 58.9574 23.0137C59.3359 23.0465 59.6453 22.9937 59.8855 22.8563C60.1258 22.7161 60.2559 22.5323 60.2759 22.303C60.2923 22.1174 60.2359 21.9554 60.1085 21.8171C59.9829 21.6788 59.7809 21.566 59.5034 21.4768L58.5179 21.1692C57.9755 20.9954 57.5834 20.7588 57.3422 20.4604C57.1029 20.1619 57.0019 19.8016 57.0383 19.3785C57.0693 19.029 57.1939 18.7306 57.4123 18.4849C57.6307 18.2392 57.9191 18.0581 58.2767 17.9407C58.6343 17.8215 59.0365 17.7815 59.4824 17.8197C60.123 17.8761 60.6162 18.059 60.9602 18.3684C61.3042 18.6759 61.5162 19.0672 61.5944 19.5404ZM65.0286 24.4787C64.4444 24.4278 63.9512 24.2594 63.5508 23.9728C63.1532 23.6834 62.8593 23.3012 62.67 22.8253C62.4825 22.3476 62.4161 21.8007 62.4698 21.1856C62.5226 20.5777 62.6818 20.0518 62.9493 19.6077C63.2187 19.1637 63.569 18.8297 64.0013 18.605C64.4362 18.3811 64.9285 18.2929 65.4799 18.3411C65.8148 18.3693 66.1342 18.4531 66.439 18.5914C66.7439 18.7297 67.0105 18.928 67.2398 19.1865C67.4691 19.4449 67.6392 19.7697 67.7502 20.161C67.8622 20.5496 67.8949 21.0127 67.8476 21.5514L67.8121 21.9609L63.0959 21.5514L63.1704 20.686L66.7557 20.9973C66.782 20.6933 66.7439 20.4185 66.6401 20.1737C66.5373 19.9253 66.3798 19.7243 66.1678 19.5677C65.9576 19.4121 65.7038 19.3211 65.4044 19.2957C65.0804 19.2674 64.7902 19.323 64.5345 19.4613C64.2806 19.5978 64.0777 19.7879 63.9239 20.0309C63.7737 20.272 63.6855 20.5413 63.66 20.8371L63.6009 21.5132C63.5663 21.91 63.6063 22.253 63.7219 22.5432C63.8393 22.8335 64.0176 23.0638 64.257 23.2321C64.4972 23.3986 64.7856 23.496 65.1232 23.5251C65.3425 23.5442 65.5446 23.5305 65.7302 23.4841C65.9158 23.4359 66.0805 23.354 66.2224 23.2394C66.3644 23.1247 66.4791 22.9773 66.5646 22.7981L67.6402 23.0901C67.5246 23.4041 67.3435 23.6725 67.096 23.8955C66.8512 24.1148 66.5527 24.2776 66.2006 24.3814C65.8521 24.4842 65.4617 24.516 65.0286 24.4787ZM74.8133 19.2283L74.7323 20.1556L71.4911 19.8744L71.5721 18.9471L74.8133 19.2283ZM72.5648 17.6013L73.7195 17.7014L73.2318 23.3149C73.2127 23.5388 73.2318 23.7098 73.2891 23.829C73.3464 23.9455 73.4256 24.0292 73.5275 24.0802C73.6322 24.1275 73.7477 24.1575 73.8742 24.1684C73.967 24.1766 74.049 24.1766 74.119 24.1703C74.19 24.163 74.2446 24.1575 74.2846 24.153L74.4102 25.1257C74.3411 25.1457 74.2437 25.163 74.1172 25.1776C73.9916 25.1958 73.8351 25.1976 73.6494 25.184C73.3455 25.163 73.0671 25.0838 72.8141 24.9483C72.5612 24.8118 72.3637 24.6179 72.2226 24.3677C72.0807 24.1166 72.0252 23.8118 72.0561 23.4541L72.5648 17.6013ZM77.0554 21.8517L76.7497 25.375L75.594 25.2749L76.281 17.3629L77.4203 17.4621L77.1655 20.4058L77.2383 20.4122C77.4058 20.1055 77.6396 19.8698 77.9417 19.7069C78.2438 19.5431 78.626 19.4822 79.0864 19.5222C79.4941 19.5568 79.8417 19.6714 80.1311 19.8653C80.4232 20.06 80.6388 20.3303 80.7771 20.677C80.9181 21.0209 80.9673 21.4404 80.9246 21.9354L80.5969 25.709L79.4422 25.6089L79.7571 21.9736C79.7953 21.5387 79.7125 21.1911 79.5095 20.9327C79.3066 20.6706 79.0054 20.5232 78.606 20.4886C78.333 20.4649 78.0837 20.5013 77.8571 20.5987C77.6332 20.6961 77.4494 20.8507 77.3066 21.0646C77.1664 21.2757 77.0827 21.5377 77.0554 21.8517ZM84.5762 26.1758C83.992 26.1248 83.4997 25.9565 83.0984 25.6699C82.7008 25.3805 82.4068 24.9983 82.2176 24.5224C82.0301 24.0447 81.9637 23.4978 82.0174 22.8826C82.0702 22.2748 82.2294 21.7489 82.4969 21.3048C82.7663 20.8608 83.1166 20.5268 83.5488 20.302C83.9838 20.0782 84.477 19.9899 85.0275 20.0373C85.3624 20.0664 85.6818 20.1501 85.9866 20.2884C86.2914 20.4258 86.5581 20.6242 86.7874 20.8835C87.0167 21.1419 87.1868 21.4668 87.2987 21.8581C87.4097 22.2466 87.4425 22.7098 87.3961 23.2475L87.3597 23.657L82.6434 23.2475L82.718 22.3831L86.3032 22.6943C86.3296 22.3904 86.2915 22.1156 86.1877 21.8708C86.0849 21.6224 85.9274 21.4213 85.7154 21.2648C85.5052 21.1092 85.2514 21.0182 84.9529 20.9927C84.6281 20.9645 84.3378 21.0191 84.0821 21.1583C83.8291 21.2948 83.6253 21.4841 83.4724 21.7279C83.3214 21.9691 83.2331 22.2375 83.2076 22.5341L83.1485 23.2103C83.1139 23.607 83.1548 23.95 83.2695 24.2403C83.3869 24.5306 83.5652 24.7608 83.8054 24.9291C84.0447 25.0957 84.3332 25.1931 84.6708 25.2222C84.8901 25.2413 85.0921 25.2276 85.2778 25.1812C85.4634 25.133 85.6281 25.0511 85.77 24.9364C85.912 24.8218 86.0266 24.6744 86.1122 24.4951L87.1878 24.7872C87.0731 25.1011 86.8911 25.3696 86.6436 25.5916C86.3988 25.8118 86.1004 25.9747 85.7491 26.0784C85.3997 26.1803 85.0093 26.2131 84.5762 26.1758ZM93.0487 18.8189L92.3626 26.7308L91.1688 26.6271L91.8549 18.7151L93.0487 18.8189ZM95.36 23.4414L95.0543 26.9647L93.8987 26.8637L94.4146 20.9299L95.5229 21.0264L95.4392 21.9927L95.5129 21.9991C95.6767 21.6961 95.9123 21.4623 96.2199 21.2976C96.5293 21.1319 96.9078 21.0691 97.3528 21.1073C97.7577 21.1428 98.1044 21.2584 98.3929 21.455C98.6822 21.6488 98.897 21.919 99.0353 22.2657C99.1736 22.6124 99.2219 23.0301 99.1791 23.5196L98.8515 27.2941L97.6967 27.194L98.0125 23.5588C98.0499 23.1284 97.9661 22.7826 97.7632 22.5214C97.5603 22.2566 97.2637 22.1083 96.8724 22.0737C96.6039 22.051 96.361 22.0883 96.1426 22.1856C95.926 22.2839 95.7477 22.4395 95.6075 22.6534C95.4701 22.8645 95.3873 23.1265 95.36 23.4414ZM105.127 23.3203L104.065 23.4141C104.033 23.2767 103.974 23.1429 103.889 23.0137C103.807 22.8845 103.69 22.7744 103.537 22.6834C103.384 22.5924 103.187 22.5369 102.948 22.516C102.621 22.4878 102.341 22.5369 102.11 22.6652C101.878 22.7899 101.752 22.9673 101.732 23.1966C101.715 23.395 101.775 23.5606 101.912 23.6943C102.047 23.8281 102.276 23.9482 102.596 24.0538L103.52 24.3523C104.056 24.5252 104.445 24.7553 104.691 25.0411C104.935 25.3268 105.039 25.6798 105.003 26.1002C104.972 26.4551 104.842 26.7627 104.611 27.023C104.384 27.2814 104.081 27.4724 103.702 27.598C103.325 27.7236 102.897 27.7655 102.418 27.7245C101.753 27.6663 101.224 27.4779 100.828 27.1576C100.433 26.8355 100.211 26.4078 100.161 25.8737L101.293 25.8009C101.337 26.0984 101.46 26.3304 101.664 26.4988C101.868 26.6644 102.143 26.7627 102.491 26.7928C102.87 26.8255 103.179 26.7727 103.419 26.6353C103.66 26.4961 103.79 26.3114 103.81 26.0821C103.826 25.8965 103.77 25.7345 103.641 25.5962C103.516 25.4579 103.315 25.345 103.037 25.2558L102.052 24.9483C101.509 24.7745 101.116 24.5379 100.875 24.2394C100.637 23.9409 100.536 23.5806 100.572 23.1584C100.602 22.8081 100.727 22.5096 100.945 22.2639C101.165 22.0182 101.452 21.8371 101.811 21.7207C102.168 21.6005 102.57 21.5605 103.015 21.5987C103.657 21.6552 104.149 21.838 104.494 22.1474C104.838 22.455 105.049 22.8463 105.127 23.3203ZM105.823 30.1414L106.531 21.9818L107.659 22.0801L107.575 23.0419L107.672 23.0501C107.749 22.9327 107.858 22.798 107.998 22.647C108.138 22.495 108.326 22.3686 108.561 22.2675C108.795 22.1629 109.098 22.1274 109.465 22.1592C109.945 22.2002 110.361 22.3585 110.716 22.6333C111.071 22.9081 111.336 23.283 111.511 23.7571C111.687 24.2321 111.747 24.7899 111.692 25.4314C111.636 26.072 111.482 26.6125 111.228 27.053C110.975 27.4897 110.651 27.8164 110.256 28.0312C109.861 28.2432 109.424 28.3287 108.946 28.2869C108.584 28.2559 108.295 28.1695 108.077 28.0284C107.86 27.8883 107.694 27.7309 107.58 27.5571C107.465 27.3842 107.379 27.2314 107.32 27.0985L107.25 27.093L106.977 30.2415L105.823 30.1414ZM107.405 25.0474C107.369 25.4642 107.398 25.8355 107.492 26.1603C107.585 26.4852 107.739 26.7463 107.953 26.9438C108.167 27.1385 108.44 27.2504 108.772 27.2796C109.117 27.3096 109.413 27.2432 109.661 27.0803C109.909 26.9147 110.106 26.679 110.251 26.3723C110.401 26.0666 110.492 25.7144 110.526 25.3186C110.56 24.9264 110.532 24.5697 110.44 24.2485C110.351 23.9264 110.198 23.6652 109.978 23.465C109.763 23.2639 109.481 23.1493 109.133 23.1192C108.798 23.0901 108.508 23.1511 108.26 23.304C108.017 23.4568 107.822 23.6825 107.676 23.981C107.532 24.2794 107.441 24.6352 107.405 25.0474ZM115.168 28.831C114.583 28.7801 114.09 28.6117 113.69 28.3251C113.292 28.0366 112.999 27.6544 112.808 27.1785C112.622 26.6999 112.555 26.153 112.608 25.5379C112.661 24.9301 112.821 24.4041 113.088 23.96C113.357 23.5169 113.708 23.1829 114.141 22.9582C114.575 22.7334 115.068 22.6452 115.619 22.6934C115.954 22.7225 116.273 22.8062 116.578 22.9436C116.882 23.0819 117.15 23.2803 117.379 23.5387C117.608 23.7972 117.779 24.122 117.89 24.5133C118.001 24.9019 118.033 25.365 117.987 25.9037L117.951 26.3132L113.234 25.9037L113.31 25.0383L116.895 25.3495C116.921 25.0456 116.882 24.7708 116.779 24.526C116.677 24.2785 116.518 24.0765 116.306 23.9209C116.097 23.7644 115.842 23.6743 115.544 23.6479C115.219 23.6197 114.929 23.6752 114.673 23.8135C114.42 23.95 114.217 24.1402 114.063 24.3832C113.912 24.6252 113.824 24.8937 113.798 25.1894L113.74 25.8655C113.706 26.2622 113.746 26.6062 113.86 26.8956C113.978 27.1867 114.157 27.4161 114.396 27.5844C114.636 27.7509 114.925 27.8483 115.262 27.8774C115.481 27.8965 115.683 27.8828 115.869 27.8373C116.055 27.7882 116.219 27.7063 116.361 27.5917C116.504 27.477 116.617 27.3296 116.703 27.1503L117.779 27.4425C117.664 27.7564 117.482 28.0248 117.234 28.2478C116.99 28.468 116.691 28.6299 116.34 28.7346C115.991 28.8365 115.6 28.8683 115.168 28.831ZM121.386 29.3706C120.811 29.3206 120.328 29.1477 119.936 28.852C119.547 28.5535 119.262 28.164 119.08 27.6835C118.899 27.204 118.834 26.6662 118.885 26.0711C118.938 25.4688 119.097 24.9464 119.364 24.5051C119.63 24.061 119.981 23.7271 120.416 23.5023C120.85 23.2785 121.347 23.1902 121.906 23.2394C122.357 23.2785 122.751 23.3968 123.09 23.5952C123.428 23.7899 123.693 24.0465 123.883 24.3641C124.076 24.6817 124.176 25.042 124.183 25.4451L123.058 25.3477C123.021 25.0638 122.9 24.8118 122.696 24.5916C122.495 24.3723 122.209 24.2458 121.841 24.2139C121.519 24.1866 121.23 24.2467 120.973 24.3959C120.719 24.5424 120.511 24.7654 120.351 25.0657C120.19 25.3632 120.091 25.7226 120.054 26.1457C120.017 26.578 120.05 26.9574 120.154 27.2823C120.258 27.608 120.423 27.8674 120.647 28.0612C120.874 28.255 121.152 28.366 121.478 28.3942C121.698 28.4133 121.899 28.3906 122.084 28.326C122.271 28.2596 122.432 28.1549 122.566 28.0139C122.703 27.8729 122.805 27.6972 122.872 27.4879L123.997 27.5853C123.922 27.9657 123.768 28.2969 123.533 28.5799C123.298 28.8638 122.998 29.0758 122.633 29.2186C122.27 29.3606 121.854 29.4116 121.386 29.3706ZM128.245 23.8672L128.165 24.7945L124.923 24.5133L125.004 23.586L128.245 23.8672ZM125.996 22.2393L127.152 22.3404L126.664 27.9529C126.645 28.1768 126.664 28.3487 126.721 28.4679C126.778 28.5844 126.858 28.6681 126.96 28.7182C127.065 28.7664 127.18 28.7955 127.307 28.8064C127.399 28.8146 127.481 28.8155 127.551 28.8083C127.622 28.8019 127.677 28.7955 127.716 28.7919L127.843 29.7637C127.773 29.7837 127.675 29.8011 127.55 29.8165C127.424 29.8338 127.267 29.8356 127.082 29.8229C126.778 29.801 126.499 29.7228 126.246 29.5863C125.994 29.4507 125.796 29.2569 125.654 29.0057C125.513 28.7546 125.458 28.4498 125.489 28.0921L125.996 22.2393ZM134.159 30.4798C133.602 30.4316 133.128 30.2614 132.735 29.9703C132.342 29.68 132.052 29.2951 131.862 28.8165C131.673 28.3388 131.604 27.7928 131.658 27.1795C131.712 26.5643 131.873 26.0356 132.142 25.5952C132.411 25.1539 132.764 24.8236 133.201 24.6052C133.638 24.3859 134.134 24.3004 134.691 24.3486C135.247 24.3968 135.721 24.567 136.114 24.8573C136.506 25.1485 136.797 25.5343 136.986 26.0157C137.175 26.4961 137.243 27.0448 137.19 27.6599C137.137 28.2732 136.976 28.7992 136.706 29.2369C136.437 29.6755 136.085 30.0048 135.648 30.2232C135.211 30.4425 134.715 30.5281 134.159 30.4798ZM134.246 29.5098C134.607 29.5417 134.914 29.4726 135.168 29.3024C135.421 29.1322 135.618 28.8938 135.759 28.5872C135.902 28.2805 135.99 27.9365 136.023 27.5553C136.057 27.1767 136.028 26.8237 135.94 26.497C135.855 26.1676 135.702 25.8964 135.482 25.6826C135.261 25.4687 134.971 25.3459 134.611 25.315C134.248 25.2831 133.937 25.3541 133.682 25.5261C133.428 25.699 133.229 25.9401 133.086 26.2486C132.945 26.5562 132.857 26.8983 132.825 27.2777C132.792 27.6581 132.818 28.0121 132.904 28.3387C132.992 28.6654 133.147 28.9348 133.367 29.1459C133.59 29.357 133.883 29.4789 134.246 29.5098ZM137.922 32.9276L138.63 24.769L139.758 24.8664L139.675 25.8282L139.771 25.8373C139.849 25.719 139.958 25.5843 140.099 25.4333C140.239 25.2822 140.426 25.1557 140.66 25.0538C140.895 24.9501 141.197 24.9137 141.566 24.9455C142.044 24.9874 142.461 25.1457 142.816 25.4205C143.172 25.6944 143.436 26.0693 143.61 26.5434C143.787 27.0184 143.848 27.5762 143.791 28.2177C143.736 28.8592 143.581 29.3997 143.328 29.8392C143.074 30.2769 142.75 30.6027 142.355 30.8175C141.96 31.0295 141.524 31.115 141.045 31.0732C140.685 31.0422 140.394 30.9558 140.176 30.8147C139.96 30.6746 139.795 30.5171 139.68 30.3443C139.565 30.1705 139.478 30.0176 139.42 29.8857L139.351 29.8793L139.077 33.0277L137.922 32.9276ZM139.505 27.8337C139.468 28.2514 139.497 28.6217 139.591 28.9466C139.685 29.2714 139.839 29.5326 140.052 29.7301C140.266 29.9248 140.539 30.0367 140.871 30.0658C141.217 30.0959 141.513 30.0294 141.76 29.8666C142.009 29.7019 142.205 29.4652 142.352 29.1595C142.5 28.8528 142.592 28.5016 142.626 28.1049C142.66 27.7136 142.631 27.3569 142.54 27.0348C142.451 26.7127 142.297 26.4515 142.079 26.2513C141.862 26.0511 141.58 25.9355 141.233 25.9055C140.898 25.8764 140.607 25.9383 140.361 26.0902C140.116 26.2431 139.921 26.4688 139.777 26.7673C139.631 27.0666 139.54 27.4215 139.505 27.8337ZM148.005 25.5825L147.925 26.5097L144.684 26.2285L144.764 25.3013L148.005 25.5825ZM145.757 23.9546L146.912 24.0556L146.425 29.6682C146.406 29.892 146.424 30.064 146.481 30.1832C146.538 30.2997 146.618 30.3834 146.72 30.4335C146.825 30.4817 146.941 30.5108 147.067 30.5217C147.159 30.5299 147.241 30.5308 147.312 30.5235C147.382 30.5172 147.438 30.5117 147.477 30.5072L147.602 31.479C147.533 31.499 147.436 31.5163 147.31 31.5317C147.184 31.549 147.028 31.5518 146.842 31.5381C146.538 31.5163 146.259 31.438 146.006 31.3015C145.754 31.1659 145.557 30.9721 145.415 30.721C145.273 30.4698 145.218 30.1659 145.249 29.8074L145.757 23.9546ZM148.66 31.6173L149.175 25.6844L150.329 25.7845L149.814 31.7183L148.66 31.6173ZM149.837 24.8191C149.636 24.8018 149.469 24.7199 149.337 24.5734C149.207 24.4241 149.15 24.2558 149.166 24.0683C149.184 23.8773 149.268 23.7216 149.421 23.5997C149.578 23.476 149.756 23.4222 149.957 23.4395C150.157 23.4577 150.323 23.5406 150.453 23.6889C150.586 23.8354 150.643 24.0046 150.627 24.1948C150.61 24.3832 150.524 24.5388 150.368 24.6626C150.215 24.7845 150.038 24.8364 149.837 24.8191ZM153.749 32.1805C153.192 32.1323 152.718 31.9622 152.325 31.671C151.933 31.3807 151.641 30.9958 151.452 30.5172C151.263 30.0394 151.195 29.4934 151.248 28.8801C151.301 28.265 151.463 27.7364 151.732 27.2959C152.001 26.8546 152.354 26.5243 152.791 26.305C153.228 26.0866 153.724 26.0011 154.28 26.0493C154.837 26.0975 155.311 26.2677 155.703 26.5579C156.097 26.8491 156.387 27.235 156.576 27.7163C156.765 28.1968 156.834 28.7455 156.78 29.3606C156.727 29.9739 156.566 30.499 156.297 30.9376C156.027 31.3762 155.675 31.7056 155.238 31.924C154.802 32.1433 154.305 32.2288 153.749 32.1805ZM153.836 31.2106C154.197 31.2424 154.504 31.1732 154.757 31.0031C155.011 30.8329 155.208 30.5945 155.349 30.2869C155.492 29.9803 155.581 29.6363 155.613 29.256C155.646 28.8774 155.619 28.5243 155.531 28.1977C155.445 27.8683 155.292 27.5971 155.072 27.3833C154.852 27.1695 154.561 27.0466 154.201 27.0157C153.837 26.9838 153.528 27.0548 153.271 27.2268C153.018 27.3997 152.819 27.6399 152.675 27.9493C152.535 28.2569 152.448 28.599 152.415 28.9775C152.382 29.3588 152.409 29.7128 152.494 30.0395C152.582 30.3661 152.737 30.6354 152.957 30.8466C153.18 31.0577 153.473 31.1796 153.836 31.2106ZM159.166 28.9803L158.86 32.5036L157.705 32.4026L158.22 26.4697L159.33 26.5653L159.245 27.5316L159.319 27.538C159.483 27.235 159.718 27.0011 160.026 26.8364C160.336 26.6708 160.714 26.608 161.16 26.6462C161.564 26.6817 161.91 26.7973 162.2 26.9938C162.489 27.1876 162.703 27.4579 162.841 27.8046C162.98 28.1513 163.028 28.569 162.986 29.0585L162.658 32.833L161.503 32.7329L161.818 29.0976C161.856 28.6672 161.773 28.3214 161.57 28.0603C161.367 27.7955 161.069 27.6471 160.678 27.6126C160.411 27.5898 160.168 27.6272 159.948 27.7245C159.733 27.8228 159.554 27.9784 159.413 28.1922C159.276 28.4033 159.193 28.6663 159.166 28.9803ZM170.154 27.5052L170.073 28.4324L166.831 28.1513L166.912 27.2241L170.154 27.5052ZM167.905 25.8773L169.06 25.9783L168.573 31.5909C168.553 31.8147 168.572 31.9868 168.629 32.106C168.687 32.2224 168.766 32.3061 168.868 32.3562C168.973 32.4044 169.089 32.4335 169.214 32.4445C169.307 32.4527 169.389 32.4535 169.46 32.4462C169.53 32.4399 169.586 32.4344 169.625 32.4299L169.75 33.4017C169.681 33.4218 169.584 33.439 169.458 33.4545C169.332 33.4718 169.176 33.4736 168.991 33.4608C168.686 33.439 168.407 33.3608 168.154 33.2243C167.901 33.0887 167.704 32.8949 167.563 32.6437C167.421 32.3926 167.365 32.0886 167.396 31.7301L167.905 25.8773ZM173.233 33.8713C172.676 33.823 172.202 33.6538 171.81 33.3626C171.417 33.0714 171.126 32.6874 170.936 32.2088C170.747 31.7301 170.679 31.1851 170.732 30.5717C170.786 29.9566 170.947 29.4279 171.216 28.9866C171.486 28.5462 171.839 28.2159 172.276 27.9966C172.712 27.7782 173.208 27.6927 173.765 27.7409C174.321 27.7891 174.795 27.9584 175.188 28.2495C175.58 28.5407 175.872 28.9266 176.06 29.4079C176.249 29.8884 176.318 30.4362 176.264 31.0522C176.211 31.6646 176.05 32.1905 175.781 32.6291C175.511 33.0677 175.159 33.3963 174.722 33.6156C174.286 33.8349 173.789 33.9195 173.233 33.8713ZM173.32 32.9022C173.681 32.934 173.988 32.8639 174.242 32.6938C174.495 32.5245 174.692 32.2861 174.833 31.9785C174.976 31.6719 175.065 31.3279 175.097 30.9466C175.131 30.5681 175.103 30.216 175.015 29.8893C174.929 29.5599 174.776 29.2878 174.556 29.0749C174.336 28.8611 174.045 28.7382 173.685 28.7072C173.322 28.6754 173.012 28.7455 172.756 28.9184C172.502 29.0904 172.303 29.3315 172.16 29.6409C172.019 29.9475 171.932 30.2906 171.899 30.6691C171.866 31.0504 171.892 31.4043 171.978 31.731C172.066 32.0577 172.221 32.3271 172.441 32.5382C172.664 32.7493 172.957 32.8703 173.32 32.9022ZM179.959 34.3353L180.475 28.4015L181.591 28.498L181.51 29.4407L181.571 29.4461C181.707 29.1358 181.919 28.9011 182.209 28.7427C182.5 28.5808 182.819 28.5153 183.168 28.5453C183.24 28.5517 183.324 28.5617 183.422 28.5753C183.522 28.589 183.6 28.6026 183.655 28.6154L183.56 29.7201C183.514 29.7028 183.433 29.6818 183.316 29.6564C183.2 29.6272 183.081 29.6081 182.963 29.5981C182.69 29.5744 182.441 29.6109 182.218 29.7082C181.997 29.8038 181.815 29.9475 181.674 30.1404C181.533 30.3306 181.452 30.5545 181.43 30.812L181.115 34.4354L179.959 34.3353ZM186.361 35.0114C185.776 34.9605 185.283 34.7921 184.882 34.5055C184.484 34.2161 184.19 33.8339 184.001 33.3589C183.815 32.8803 183.747 32.3334 183.801 31.7183C183.854 31.1104 184.014 30.5845 184.281 30.1404C184.55 29.6973 184.901 29.3624 185.332 29.1386C185.767 28.9138 186.261 28.8256 186.811 28.8738C187.146 28.9029 187.466 28.9857 187.77 29.124C188.075 29.2623 188.342 29.4607 188.571 29.7191C188.8 29.9775 188.97 30.3024 189.082 30.6937C189.193 31.0823 189.226 31.5454 189.18 32.0841L189.144 32.4936L184.427 32.0841L184.503 31.2187L188.087 31.53C188.113 31.226 188.075 30.9512 187.972 30.7064C187.868 30.4589 187.711 30.2569 187.499 30.1004C187.289 29.9448 187.035 29.8538 186.736 29.8284C186.412 29.8001 186.121 29.8556 185.866 29.9939C185.613 30.1304 185.409 30.3206 185.256 30.5636C185.105 30.8047 185.017 31.0741 184.991 31.3698L184.932 32.0459C184.898 32.4426 184.938 32.7857 185.053 33.0759C185.17 33.3662 185.349 33.5965 185.589 33.7648C185.828 33.9313 186.118 34.0286 186.454 34.0578C186.674 34.0769 186.876 34.0632 187.061 34.0168C187.248 33.9686 187.412 33.8867 187.554 33.7721C187.696 33.6574 187.81 33.51 187.896 33.3308L188.972 33.6228C188.857 33.9368 188.675 34.2052 188.427 34.4282C188.182 34.6475 187.884 34.8103 187.533 34.9141C187.184 35.0169 186.793 35.0487 186.361 35.0114ZM195.51 29.7064L192.844 35.4536L191.607 35.3463L189.967 29.225L191.207 29.3324L192.314 34.0296L192.375 34.035L194.271 29.599L195.51 29.7064ZM195.973 35.7248L196.488 29.791L197.642 29.8911L197.127 35.8249L195.973 35.7248ZM197.15 28.9266C196.949 28.9093 196.782 28.8265 196.65 28.6809C196.52 28.5316 196.463 28.3633 196.479 28.175C196.497 27.9848 196.581 27.8282 196.734 27.7072C196.891 27.5825 197.069 27.5298 197.27 27.5471C197.471 27.5644 197.636 27.6481 197.766 27.7964C197.899 27.9429 197.956 28.1113 197.94 28.3024C197.923 28.4898 197.838 28.6463 197.681 28.7701C197.529 28.892 197.351 28.9439 197.15 28.9266ZM201.119 36.2926C200.535 36.2416 200.042 36.0733 199.641 35.7867C199.244 35.4973 198.95 35.1151 198.761 34.6401C198.573 34.1615 198.507 33.6147 198.56 32.9995C198.613 32.3917 198.772 31.8657 199.04 31.4217C199.309 30.9785 199.66 30.6436 200.092 30.4198C200.527 30.195 201.019 30.1068 201.571 30.155C201.905 30.1841 202.225 30.2669 202.53 30.4052C202.834 30.5436 203.101 30.7419 203.33 31.0003C203.56 31.2588 203.73 31.5836 203.841 31.9749C203.953 32.3634 203.986 32.8266 203.938 33.3653L203.903 33.7748L199.186 33.3653L199.261 32.5L202.846 32.8111C202.873 32.5072 202.834 32.2324 202.731 31.9877C202.628 31.7402 202.47 31.5381 202.258 31.3816C202.048 31.226 201.794 31.135 201.495 31.1095C201.171 31.0813 200.881 31.1368 200.625 31.2751C200.371 31.4116 200.168 31.6018 200.015 31.8448C199.864 32.0859 199.776 32.3553 199.751 32.651L199.691 33.3271C199.657 33.7238 199.697 34.0669 199.812 34.3572C199.93 34.6474 200.108 34.8776 200.348 35.046C200.588 35.2125 200.876 35.3099 201.214 35.339C201.433 35.3581 201.635 35.3444 201.821 35.299C202.006 35.2498 202.171 35.1679 202.313 35.0532C202.455 34.9386 202.57 34.7912 202.655 34.6119L203.731 34.904C203.615 35.2179 203.434 35.4864 203.187 35.7093C202.942 35.9286 202.643 36.0915 202.291 36.1952C201.943 36.2981 201.552 36.3299 201.119 36.2926ZM206.124 36.6066L204.893 30.5208L206.087 30.6246L206.871 35.0833L206.929 35.0878L208.474 30.832L209.668 30.9357L210.451 35.3745L210.508 35.379L212.04 31.1414L213.233 31.2451L210.977 37.0279L209.798 36.925L208.965 32.5363L208.876 32.5291L207.299 36.7085L206.124 36.6066ZM47.3937 39.6831L48.1026 31.5236L49.23 31.6218L49.1472 32.5836L49.2436 32.5919C49.321 32.4745 49.4302 32.3398 49.5703 32.1888C49.7104 32.0368 49.8979 31.9112 50.1326 31.8093C50.3674 31.7047 50.6686 31.6692 51.0372 31.701C51.5167 31.7429 51.9335 31.9003 52.2883 32.1751C52.6432 32.4499 52.908 32.8248 53.0818 33.2989C53.2584 33.7739 53.3193 34.3317 53.2638 34.9732C53.2083 35.6138 53.0536 36.1543 52.7997 36.5947C52.5468 37.0315 52.2228 37.3582 51.8279 37.5729C51.433 37.785 50.9962 37.8705 50.5166 37.8286C50.1563 37.7977 49.867 37.7113 49.6477 37.5702C49.432 37.4301 49.2664 37.2727 49.1517 37.0989C49.0371 36.926 48.9507 36.7731 48.8915 36.6412L48.8223 36.6348L48.5493 39.7832L47.3937 39.6831ZM48.977 34.5892C48.9406 35.006 48.9689 35.3772 49.0626 35.7021C49.1563 36.0269 49.3101 36.2881 49.5239 36.4855C49.7387 36.6803 50.0116 36.7922 50.3438 36.8213C50.6886 36.8514 50.9853 36.7849 51.2328 36.622C51.4803 36.4564 51.6778 36.2208 51.8234 35.9141C51.9717 35.6084 52.0636 35.2571 52.0982 34.8604C52.1318 34.4682 52.1036 34.1114 52.0117 33.7902C51.9234 33.4681 51.7697 33.207 51.5504 33.0068C51.3347 32.8057 51.0526 32.691 50.705 32.661C50.3702 32.6319 50.079 32.6929 49.8324 32.8457C49.5885 32.9986 49.3938 33.2243 49.2482 33.5228C49.1026 33.8212 49.0125 34.177 48.977 34.5892ZM54.1929 38.0315L54.7079 32.0977L55.8244 32.1942L55.7425 33.1369L55.8044 33.1424C55.94 32.8321 56.152 32.5973 56.4414 32.439C56.7326 32.277 57.0528 32.2115 57.4004 32.2415C57.4723 32.2479 57.557 32.2579 57.6544 32.2716C57.7545 32.2852 57.8327 32.2988 57.8882 32.3116L57.7927 33.4163C57.7472 33.399 57.6662 33.378 57.5488 33.3516C57.4323 33.3234 57.314 33.3043 57.1957 33.2943C56.9227 33.2707 56.6743 33.3071 56.4505 33.4045C56.2294 33.5 56.0483 33.6438 55.9072 33.8367C55.7662 34.0259 55.6843 34.2498 55.6624 34.5082L55.3476 38.1317L54.1929 38.0315ZM60.5935 38.7077C60.0084 38.6567 59.5161 38.4883 59.1157 38.2017C58.7171 37.9123 58.4232 37.5302 58.234 37.0543C58.0474 36.5765 57.9801 36.0297 58.0338 35.4145C58.0866 34.8067 58.2467 34.2807 58.5133 33.8367C58.7827 33.3926 59.1339 33.0586 59.5652 32.8348C60.0002 32.61 60.4934 32.5218 61.0439 32.57C61.3788 32.5982 61.6991 32.6819 62.003 32.8202C62.3078 32.9586 62.5754 33.1569 62.8038 33.4153C63.0331 33.6738 63.2041 33.9987 63.3151 34.3899C63.427 34.7785 63.4589 35.2416 63.4125 35.7803L63.377 36.1898L58.6598 35.7803L58.7354 34.915L62.3196 35.2261C62.346 34.9222 62.3078 34.6474 62.205 34.4027C62.1013 34.1552 61.9438 33.9531 61.7318 33.7966C61.5225 33.641 61.2677 33.55 60.9693 33.5245C60.6444 33.4963 60.3542 33.5518 60.0985 33.6902C59.8455 33.8266 59.6417 34.0169 59.4888 34.2598C59.3378 34.501 59.2495 34.7703 59.224 35.066L59.1657 35.7421C59.1312 36.1388 59.1712 36.4819 59.2859 36.7722C59.4033 37.0625 59.5825 37.2927 59.8218 37.461C60.0621 37.6276 60.3505 37.7249 60.6881 37.754C60.9065 37.7731 61.1085 37.7595 61.2942 37.7131C61.4807 37.6648 61.6445 37.583 61.7864 37.4683C61.9293 37.3537 62.043 37.2062 62.1286 37.0269L63.205 37.3191C63.0895 37.633 62.9075 37.9014 62.66 38.1243C62.4152 38.3436 62.1167 38.5066 61.7655 38.6103C61.417 38.7131 61.0257 38.745 60.5935 38.7077ZM69.743 33.4026L67.0769 39.1499L65.8403 39.0425L64.1996 32.9213L65.4399 33.0286L66.5464 37.7258L66.6083 37.7313L68.5037 33.2953L69.743 33.4026ZM70.2053 39.4211L70.7203 33.4873L71.8751 33.5873L71.36 39.5211L70.2053 39.4211ZM71.3828 32.6228C71.1826 32.6055 71.0152 32.5227 70.8832 32.3771C70.7531 32.2279 70.6967 32.0596 70.713 31.8712C70.7294 31.681 70.814 31.5245 70.9669 31.4034C71.1234 31.2788 71.3018 31.226 71.5029 31.2433C71.704 31.2606 71.8687 31.3443 71.9988 31.4926C72.1317 31.6391 72.189 31.8075 72.1726 31.9985C72.1562 32.186 72.0707 32.3425 71.9142 32.4663C71.7613 32.5882 71.5839 32.6401 71.3828 32.6228ZM75.2947 39.9834C74.7378 39.9352 74.2637 39.7659 73.8715 39.4747C73.4784 39.1835 73.1881 38.7995 72.998 38.3209C72.8087 37.8423 72.7405 37.2972 72.7941 36.6839C72.8478 36.0688 73.0089 35.5401 73.2782 35.0988C73.5476 34.6575 73.9006 34.328 74.3374 34.1087C74.7742 33.8895 75.2701 33.8048 75.827 33.853C76.3829 33.9013 76.8571 34.0705 77.2502 34.3617C77.6423 34.6529 77.9335 35.0387 78.1219 35.5192C78.3112 36.0005 78.3794 36.5483 78.3257 37.1643C78.2729 37.7767 78.1119 38.3027 77.8425 38.7413C77.5741 39.1799 77.221 39.5084 76.7842 39.7277C76.3475 39.947 75.8507 40.0316 75.2947 39.9834ZM75.382 39.0143C75.7433 39.0452 76.0499 38.9761 76.3038 38.8059C76.5568 38.6367 76.7542 38.3973 76.8953 38.0907C77.0381 37.784 77.1264 37.4401 77.1601 37.0588C77.1928 36.6803 77.1646 36.3281 77.0764 36.0005C76.9908 35.672 76.8379 35.4 76.6177 35.1862C76.3975 34.9732 76.1073 34.8504 75.7469 34.8194C75.3839 34.7876 75.0736 34.8576 74.8179 35.0305C74.564 35.2025 74.3647 35.4437 74.2218 35.753C74.0808 36.0597 73.9934 36.4027 73.9607 36.7813C73.9279 37.1626 73.9543 37.5165 74.0398 37.8432C74.1281 38.1699 74.2828 38.4392 74.503 38.6503C74.726 38.8614 75.019 38.9824 75.382 39.0143ZM83.224 38.0716L83.5252 34.5992L84.6844 34.6993L84.1694 40.6331L83.0329 40.5348L83.1221 39.5075L83.0611 39.502C82.8964 39.8069 82.6553 40.0517 82.335 40.2364C82.0183 40.4193 81.637 40.4911 81.1911 40.4529C80.8108 40.4193 80.4805 40.3064 80.2011 40.1135C79.9254 39.9188 79.718 39.6476 79.5787 39.3009C79.4432 38.9542 79.3968 38.5366 79.4386 38.047L79.7662 34.2725L80.9218 34.3726L80.606 38.0079C80.5706 38.4128 80.6552 38.744 80.8581 39.0033C81.0611 39.2618 81.3422 39.4074 81.6998 39.4383C81.9164 39.4565 82.1357 39.4219 82.3595 39.3319C82.5852 39.2427 82.7781 39.0944 82.9392 38.8878C83.1021 38.6813 83.1967 38.4092 83.224 38.0716ZM90.4481 36.6593L89.3853 36.754C89.3525 36.6166 89.2943 36.4828 89.2097 36.3536C89.1278 36.2244 89.0095 36.1143 88.8566 36.0233C88.7037 35.9323 88.5081 35.8759 88.2678 35.855C87.9412 35.8267 87.6618 35.8768 87.4298 36.0042C87.1987 36.1298 87.0731 36.3072 87.0531 36.5365C87.0358 36.7339 87.0958 36.9004 87.2314 37.0342C87.3679 37.168 87.5963 37.2881 87.9166 37.3937L88.8402 37.6912C89.3753 37.865 89.7656 38.0953 90.0104 38.381C90.2552 38.6667 90.3598 39.0197 90.3234 39.4392C90.2925 39.795 90.1624 40.1026 89.9322 40.3628C89.7047 40.6213 89.4007 40.8124 89.0222 40.9379C88.6455 41.0635 88.2169 41.1054 87.7383 41.0635C87.074 41.0062 86.5435 40.8178 86.1486 40.4975C85.7536 40.1754 85.5316 39.7477 85.4816 39.2136L86.6126 39.1408C86.6572 39.4374 86.781 39.6704 86.9839 39.8387C87.1878 40.0043 87.4635 40.1017 87.8111 40.1317C88.1896 40.1654 88.499 40.1126 88.7392 39.9752C88.9803 39.8351 89.1104 39.6503 89.1305 39.4219C89.1459 39.2363 89.0904 39.0743 88.9621 38.936C88.8365 38.7977 88.6346 38.684 88.357 38.5957L87.3715 38.2882C86.8292 38.1135 86.437 37.8778 86.1959 37.5784C85.9566 37.2799 85.8556 36.9196 85.8929 36.4974C85.9229 36.147 86.0476 35.8495 86.266 35.6038C86.4844 35.3581 86.7728 35.177 87.1304 35.0596C87.4889 34.9404 87.8902 34.9004 88.3361 34.9386C88.9776 34.9941 89.4699 35.177 89.8139 35.4873C90.1587 35.7949 90.3699 36.1852 90.4481 36.6593ZM94.1061 41.4957L94.6212 35.5619L95.7377 35.6593L95.6557 36.602L95.7176 36.6075C95.8532 36.2972 96.0661 36.0624 96.3546 35.9032C96.6467 35.7421 96.9661 35.6766 97.3137 35.7066C97.3856 35.713 97.4702 35.723 97.5676 35.7367C97.6677 35.7503 97.7459 35.763 97.8023 35.7758L97.7059 36.8814C97.6604 36.8641 97.5794 36.8432 97.4629 36.8168C97.3455 36.7886 97.2282 36.7694 97.1099 36.7594C96.8369 36.7357 96.5884 36.7722 96.3646 36.8695C96.1435 36.9642 95.9624 37.1079 95.8205 37.3009C95.6794 37.491 95.5984 37.7149 95.5757 37.9724L95.2608 41.5958L94.1061 41.4957ZM102.145 39.714L102.446 36.2417L103.605 36.3418L103.09 42.2755L101.954 42.1773L102.044 41.1499L101.982 41.1445C101.818 41.4493 101.576 41.6941 101.257 41.8788C100.939 42.0617 100.558 42.1336 100.113 42.0954C99.7314 42.0617 99.4011 41.9489 99.1227 41.756C98.846 41.5612 98.6386 41.2901 98.5003 40.9434C98.3638 40.5967 98.3173 40.179 98.3601 39.6895L98.6877 35.915L99.8424 36.0151L99.5267 39.6503C99.4921 40.0553 99.5758 40.3865 99.7787 40.6459C99.9826 40.9043 100.263 41.0498 100.621 41.0808C100.837 41.0999 101.057 41.0644 101.28 40.9743C101.506 40.8851 101.699 40.7368 101.86 40.5303C102.023 40.3237 102.118 40.0516 102.145 39.714ZM105.994 38.9779L105.688 42.5013L104.533 42.4011L105.048 36.4673L106.157 36.5638L106.073 37.5292L106.147 37.5356C106.31 37.2335 106.546 36.9997 106.854 36.8341C107.164 36.6693 107.542 36.6056 107.987 36.6448C108.391 36.6794 108.738 36.7958 109.027 36.9914C109.317 37.1853 109.531 37.4556 109.669 37.8023C109.808 38.1499 109.856 38.5675 109.814 39.0571L109.486 42.8307L108.33 42.7305L108.646 39.0953C108.684 38.6658 108.601 38.32 108.398 38.0579C108.195 37.794 107.897 37.6448 107.506 37.6112C107.239 37.5875 106.996 37.6248 106.776 37.7231C106.561 37.8204 106.382 37.9769 106.241 38.1899C106.104 38.401 106.021 38.664 105.994 38.9779ZM115.762 38.8569L114.699 38.9515C114.666 38.8141 114.608 38.6804 114.524 38.5512C114.441 38.4219 114.323 38.3118 114.171 38.2208C114.018 38.1298 113.821 38.0734 113.582 38.0525C113.255 38.0243 112.976 38.0743 112.744 38.2017C112.513 38.3273 112.387 38.5047 112.367 38.734C112.35 38.9315 112.409 39.098 112.545 39.2318C112.682 39.3655 112.91 39.4856 113.231 39.5912L114.154 39.8888C114.689 40.0626 115.08 40.2928 115.324 40.5785C115.569 40.8642 115.674 41.2173 115.637 41.6368C115.606 41.9926 115.476 42.3001 115.246 42.5603C115.019 42.8179 114.715 43.0099 114.335 43.1355C113.959 43.261 113.531 43.3029 113.052 43.261C112.387 43.2037 111.857 43.0153 111.463 42.695C111.068 42.3729 110.846 41.9452 110.796 41.4111L111.927 41.3383C111.971 41.635 112.095 41.8679 112.298 42.0362C112.502 42.2018 112.777 42.2992 113.125 42.3293C113.504 42.3629 113.813 42.3101 114.053 42.1727C114.293 42.0326 114.424 41.8479 114.444 41.6186C114.46 41.4339 114.404 41.2719 114.276 41.1336C114.151 40.9952 113.949 40.8815 113.671 40.7933L112.686 40.4857C112.143 40.311 111.751 40.0744 111.51 39.7759C111.271 39.4774 111.17 39.1171 111.207 38.6949C111.237 38.3446 111.362 38.047 111.58 37.8013C111.798 37.5556 112.087 37.3746 112.444 37.2572C112.803 37.138 113.204 37.0979 113.65 37.1361C114.291 37.1916 114.784 37.3746 115.128 37.6849C115.473 37.9924 115.684 38.3828 115.762 38.8569Z" fill="white" fill-opacity="0.5"/>
<defs>
<filter id="filter0_i_2001_590" x="17.5008" y="16.9246" width="13.397" height="14.8083" filterUnits="userSpaceOnUse" color-interpolation-filters="sRGB">
<feFlood flood-opacity="0" result="BackgroundImageFix"/>
<feBlend mode="normal" in="SourceGraphic" in2="BackgroundImageFix" result="shape"/>
<feColorMatrix in="SourceAlpha" type="matrix" values="0 0 0 0 0 0 0 0 0 0 0 0 0 0 0 0 0 0 127 0" result="hardAlpha"/>
<feOffset dy="-0.3"/>
<feGaussianBlur stdDeviation="0.3"/>
<feComposite in2="hardAlpha" operator="arithmetic" k2="-1" k3="1"/>
<feColorMatrix type="matrix" values="0 0 0 0 0 0 0 0 0 0 0 0 0 0 0 0 0 0 0.45 0"/>
<feBlend mode="normal" in2="shape" result="effect1_innerShadow_2001_590"/>
</filter>
</defs>
</svg>
