<svg width="22" height="22" viewBox="0 0 22 22" fill="none" xmlns="http://www.w3.org/2000/svg">
<g clip-path="url(#clip0_2001_1525)">
<path d="M20.1716 10.6356C20.2632 5.38966 16.0848 1.06279 10.8389 0.971218C5.59298 0.87965 1.2661 5.05807 1.17453 10.304C1.08297 15.5499 5.26138 19.8768 10.5073 19.9683C15.7532 20.0599 20.0801 15.8815 20.1716 10.6356Z" fill="url(#paint0_linear_2001_1525)"/>
<path d="M20.1716 10.6356C20.2632 5.38966 16.0848 1.06279 10.8389 0.971218C5.59298 0.87965 1.2661 5.05807 1.17453 10.304C1.08297 15.5499 5.26138 19.8768 10.5073 19.9683C15.7532 20.0599 20.0801 15.8815 20.1716 10.6356Z" stroke="url(#paint1_radial_2001_1525)"/>
<path d="M11.0621 5.05113C10.914 5.13192 10.784 5.21304 10.673 5.28852C10.562 5.21304 10.432 5.13192 10.2839 5.05113C9.752 4.761 8.97601 4.46973 8.00635 4.46973C6.99414 4.46973 5.983 4.87545 5.22832 5.68044C4.47045 6.48883 4.00635 7.66035 4.00635 9.1364C4.00635 11.3663 5.5882 13.2046 7.06093 14.4212C7.81525 15.0444 8.58426 15.5407 9.20082 15.8833C9.50896 16.0544 9.78551 16.1908 10.009 16.2866C10.1201 16.3342 10.2256 16.3751 10.32 16.4053C10.3919 16.4283 10.5291 16.4698 10.673 16.4698C10.8169 16.4698 10.9541 16.4283 11.026 16.4053C11.1204 16.3751 11.2259 16.3342 11.337 16.2866C11.5605 16.1908 11.8371 16.0544 12.1452 15.8833C12.7618 15.5407 13.5308 15.0444 14.2851 14.4212C15.7578 13.2046 17.3397 11.3663 17.3397 9.1364C17.3397 7.66035 16.8756 6.48883 16.1177 5.68044C15.363 4.87545 14.3519 4.46973 13.3397 4.46973C12.37 4.46973 11.594 4.761 11.0621 5.05113Z" fill="white"/>
</g>
<defs>
<linearGradient id="paint0_linear_2001_1525" x1="10.8565" y1="0.462799" x2="10.5075" y2="20.4598" gradientUnits="userSpaceOnUse">
<stop stop-color="#10834B"/>
<stop offset="1" stop-color="#09F785"/>
</linearGradient>
<radialGradient id="paint1_radial_2001_1525" cx="0" cy="0" r="1" gradientUnits="userSpaceOnUse" gradientTransform="translate(10.0074 0.447976) rotate(88.5684) scale(20.018 21.9333)">
<stop stop-color="white" stop-opacity="0.48"/>
<stop offset="1" stop-color="white" stop-opacity="0.04"/>
</radialGradient>
<clipPath id="clip0_2001_1525">
<rect width="21" height="21" fill="white" transform="translate(0.5 0.296875)"/>
</clipPath>
</defs>
</svg>
