<svg width="116" height="31" viewBox="0 0 116 31" fill="none" xmlns="http://www.w3.org/2000/svg">
<g clip-path="url(#clip0_2001_1041)">
<path fill-rule="evenodd" clip-rule="evenodd" d="M6.15164 0.375H24.3484C27.6077 0.375 30.25 3.01725 30.25 6.27664V24.4734C30.25 27.7327 27.6077 30.375 24.3484 30.375H6.15164C2.89225 30.375 0.25 27.7327 0.25 24.4734V6.27664C0.25 3.01725 2.89225 0.375 6.15164 0.375ZM14.3214 9.51068C14.6182 9.1138 15.2493 9.3237 15.2493 9.81924V16.8918H9.83067C9.40639 16.8918 9.16393 16.4077 9.41799 16.0679L14.3214 9.51068ZM16.1787 20.9762C15.8817 21.3731 15.25 21.1632 15.25 20.6677V13.5952H20.6734C21.098 13.5952 21.3407 14.0792 21.0863 14.419L16.1787 20.9762Z" fill="#4B4B4C"/>
<path d="M42.145 5.39062V13.0107H42.2373C42.5097 12.6064 42.791 12.2417 43.081 11.9165C43.371 11.5913 43.6918 11.3145 44.0434 11.0859C44.4038 10.8486 44.7993 10.6685 45.2299 10.5454C45.6606 10.4224 46.1484 10.3608 46.6933 10.3608C47.7392 10.3608 48.5786 10.5718 49.2114 10.9937C49.853 11.4067 50.3276 12.0396 50.6352 12.8921C50.8022 13.3491 50.9208 13.8633 50.9912 14.4346C51.0703 15.0059 51.1098 15.6475 51.1098 16.3594V24.375H47.4975V15.3179C47.4975 14.606 47.3305 14.0435 46.9965 13.6304C46.6625 13.2085 46.1835 12.9976 45.5595 12.9976C45.208 12.9976 44.8652 13.0854 44.5312 13.2612C44.1972 13.437 43.8808 13.6567 43.582 13.9204C43.2831 14.1841 43.0107 14.4741 42.7646 14.7905C42.5185 15.1069 42.312 15.4102 42.145 15.7002V24.375H38.5195V5.39062H42.145ZM67.5366 10.6641V24.2695C67.5366 25.2979 67.3696 26.168 67.0356 26.8799C66.7104 27.6006 66.2446 28.1851 65.6381 28.6333C65.0405 29.0815 64.3198 29.4067 63.476 29.6089C62.6411 29.811 61.7182 29.9121 60.7075 29.9121C59.9252 29.9121 59.1298 29.8418 58.3212 29.7012C57.5214 29.5693 56.7788 29.3672 56.0932 29.0947C56.2778 28.6553 56.4667 28.2246 56.6601 27.8027C56.8535 27.3809 57.0512 26.959 57.2534 26.5371C57.8862 26.7393 58.5278 26.9106 59.1782 27.0513C59.8286 27.2007 60.457 27.2754 61.0634 27.2754C61.2392 27.2754 61.4282 27.2666 61.6303 27.249C61.8413 27.2402 62.0522 27.2095 62.2631 27.1567C62.4741 27.104 62.6806 27.0205 62.8828 26.9062C63.0849 26.8008 63.2607 26.6514 63.4101 26.458C63.5683 26.2734 63.6957 26.0361 63.7924 25.7461C63.8891 25.4648 63.9418 25.1221 63.9506 24.7178V22.0415H63.832C63.5419 22.481 63.2387 22.8677 62.9223 23.2017C62.6147 23.5269 62.2807 23.8037 61.9204 24.0322C61.56 24.252 61.1645 24.4146 60.7338 24.52C60.3032 24.6343 59.8242 24.6914 59.2968 24.6914C58.4355 24.6914 57.7236 24.5552 57.1611 24.2827C56.5986 24.0103 56.1459 23.6191 55.8032 23.1094C55.4692 22.582 55.2319 21.9492 55.0913 21.2109C54.9506 20.4727 54.8803 19.6333 54.8803 18.6929V10.6641H58.4926V19.7344C58.4926 20.4902 58.6684 21.0659 59.02 21.4614C59.3715 21.8569 59.8549 22.0547 60.4702 22.0547C60.8041 22.0547 61.1293 21.9756 61.4457 21.8174C61.7709 21.6592 62.083 21.4526 62.3818 21.1978C62.6806 20.9429 62.9575 20.6528 63.2123 20.3276C63.4672 19.9937 63.6957 19.6597 63.8979 19.3257V10.6641H67.5366ZM75.4995 12.8657C76.519 11.1958 77.9604 10.3608 79.8237 10.3608C80.7465 10.3608 81.5244 10.541 82.1572 10.9014C82.79 11.2617 83.2998 11.7495 83.6865 12.3647C84.082 12.9712 84.3632 13.6787 84.5302 14.4873C84.706 15.2871 84.7939 16.1353 84.7939 17.0317C84.7939 18.2974 84.6225 19.4092 84.2797 20.3672C83.9457 21.3164 83.4711 22.1118 82.8559 22.7534C82.2407 23.395 81.5024 23.8784 80.6411 24.2036C79.7885 24.5288 78.8437 24.6914 77.8066 24.6914C77.4287 24.6914 77.0595 24.6738 76.6992 24.6387C76.3476 24.6035 75.9916 24.5596 75.6313 24.5068V29.6616H72.0322V15.1465C72.0322 14.7334 72.0278 14.3467 72.019 13.9863C72.019 13.626 72.0058 13.2832 71.9794 12.958C71.9531 12.6328 71.9135 12.3164 71.8608 12.0088C71.8168 11.6924 71.7509 11.376 71.663 11.0596C72.2255 10.9014 72.7573 10.7695 73.2582 10.6641C73.7592 10.5586 74.2998 10.4575 74.8798 10.3608C74.9414 10.5454 74.9985 10.7212 75.0512 10.8882C75.104 11.0552 75.1479 11.2354 75.1831 11.4287C75.227 11.6221 75.2622 11.833 75.2885 12.0615C75.3149 12.29 75.3369 12.5581 75.3544 12.8657H75.4995ZM75.5917 21.791C76.2949 21.9668 76.9497 22.0547 77.5561 22.0547C78.0747 22.0547 78.5537 21.9844 78.9931 21.8438C79.4414 21.7031 79.8237 21.4746 80.1401 21.1582C80.4653 20.8418 80.7202 20.4331 80.9047 19.9321C81.0893 19.4312 81.1816 18.8203 81.1816 18.0996C81.1816 17.3525 81.1508 16.667 81.0893 16.043C81.0278 15.4189 80.9047 14.8828 80.7202 14.4346C80.5356 13.9775 80.2719 13.626 79.9291 13.3799C79.5864 13.125 79.1337 12.9976 78.5712 12.9976C78.1581 12.9976 77.7934 13.0811 77.477 13.248C77.1694 13.415 76.8881 13.6479 76.6332 13.9468C76.4399 14.1577 76.2597 14.3994 76.0927 14.6719C75.9257 14.9355 75.7587 15.2212 75.5917 15.5288V21.791ZM99.5463 23.7554C99.186 23.9048 98.7905 24.0366 98.3598 24.1509C97.9379 24.2651 97.4941 24.3618 97.0283 24.4409C96.5624 24.52 96.0878 24.5815 95.6044 24.6255C95.1298 24.6694 94.664 24.6914 94.207 24.6914C91.8955 24.6914 90.1464 24.1377 88.9599 23.0303C87.7822 21.9141 87.1933 20.209 87.1933 17.915C87.1933 16.8955 87.312 15.9287 87.5493 15.0146C87.7866 14.1006 88.1689 13.3008 88.6962 12.6152C89.2324 11.9209 89.9311 11.3716 90.7924 10.9673C91.6625 10.563 92.726 10.3608 93.9829 10.3608C96.1801 10.3608 97.8193 10.9453 98.9003 12.1143C99.9814 13.2744 100.522 15.0498 100.522 17.4404V18.4819H90.7792C90.7968 19.0796 90.8671 19.6069 90.9902 20.064C91.1132 20.521 91.3154 20.9077 91.5966 21.2241C91.8867 21.5317 92.2646 21.769 92.7304 21.936C93.1962 22.0942 93.7807 22.1733 94.4838 22.1733C95.0991 22.1733 95.7626 22.0986 96.4746 21.9492C97.1865 21.791 97.9291 21.5669 98.7026 21.2769L99.5463 23.7554ZM96.9096 16.1353C96.8481 13.9644 95.8725 12.8789 93.9829 12.8789C93.0073 12.8789 92.2646 13.1602 91.7548 13.7227C91.2539 14.2852 90.9462 15.0894 90.832 16.1353H96.9096ZM107.826 13.0107C108.142 12.5449 108.437 12.1626 108.709 11.8638C108.973 11.5737 109.25 11.3364 109.54 11.1519C109.83 10.9585 110.12 10.8047 110.41 10.6904C110.709 10.5674 111.007 10.4839 111.306 10.4399C111.605 10.3872 111.899 10.3608 112.19 10.3608C112.436 10.3608 112.673 10.3784 112.901 10.4136C113.139 10.4399 113.358 10.4751 113.561 10.519C113.534 10.7651 113.499 11.0288 113.455 11.3101C113.411 11.5825 113.363 11.8594 113.31 12.1406C113.257 12.4219 113.196 12.6987 113.126 12.9712C113.064 13.2437 112.998 13.4985 112.928 13.7358C112.427 13.6392 111.992 13.5601 111.623 13.4985C111.253 13.4282 110.924 13.3931 110.634 13.3931C110.361 13.3931 110.111 13.4326 109.882 13.5117C109.663 13.582 109.443 13.7095 109.223 13.894C109.003 14.0786 108.775 14.3247 108.538 14.6323C108.309 14.9312 108.05 15.3091 107.76 15.7661V24.375H104.148V15.9243C104.148 15.4146 104.143 14.9399 104.134 14.5005C104.126 14.0522 104.108 13.6348 104.082 13.248C104.055 12.8525 104.016 12.479 103.963 12.1274C103.91 11.7759 103.84 11.4331 103.752 11.0991C104.323 10.9497 104.89 10.8135 105.453 10.6904C106.024 10.5674 106.6 10.4575 107.18 10.3608C107.241 10.5454 107.298 10.73 107.351 10.9146C107.404 11.0903 107.448 11.2837 107.483 11.4946C107.518 11.6968 107.549 11.9209 107.575 12.167C107.602 12.4131 107.628 12.6943 107.654 13.0107H107.826Z" fill="#4B4B4C"/>
</g>
<defs>
<clipPath id="clip0_2001_1041">
<rect width="115" height="30" fill="white" transform="translate(0.25 0.375)"/>
</clipPath>
</defs>
</svg>
