<svg width="141" height="31" viewBox="0 0 141 31" fill="none" xmlns="http://www.w3.org/2000/svg">
<g clip-path="url(#clip0_2001_1032)">
<mask id="mask0_2001_1032" style="mask-type:luminance" maskUnits="userSpaceOnUse" x="0" y="0" width="140" height="31">
<path d="M139.605 0.375H0.25V30.375H139.605V0.375Z" fill="white"/>
</mask>
<g mask="url(#mask0_2001_1032)">
<path fill-rule="evenodd" clip-rule="evenodd" d="M11.5396 0.375H23.193L28.8863 10.4058L17.7286 29.9963H6.07321L0.25 19.8398L11.5396 0.375ZM12.0163 2.90695L2.19244 19.8447L6.55824 27.4592L16.2716 10.4044L12.0163 2.90695ZM17.7286 11.2465L8.00808 28.3136H16.7504L26.471 11.2465H17.7286ZM26.4734 9.56378H17.7294L13.4692 2.05771H22.2132L26.4734 9.56378Z" fill="#4B4B4C"/>
<path fill-rule="evenodd" clip-rule="evenodd" d="M55.6968 19.9661L49.8699 30.0584L38.3365 29.9734L26.9492 10.5152L32.7771 0.421387L44.4846 0.456693L55.6968 19.9661ZM53.2656 19.1131L43.5089 2.13648L34.7318 2.10999L44.6452 19.0495L53.2656 19.1131ZM43.1873 19.8902L33.2669 2.93838L28.8956 10.5095L38.8161 27.4614L43.1873 19.8902ZM40.2722 28.3047L44.6442 20.7323L53.2746 20.7959L48.9026 28.3683L40.2722 28.3047Z" fill="#4B4B4C"/>
<path d="M68.707 6.41315H73.4934L78.205 18.778L82.9664 6.41315H87.7029V24.0629H84.7114V9.40463H84.6616L79.3019 24.0629H77.1081L71.7484 9.40463H71.6985V24.0629H68.707V6.41315ZM90.8387 18.0799C90.8387 17.1326 91.0048 16.2767 91.3373 15.5122C91.6864 14.7312 92.1515 14.0663 92.7333 13.5179C93.3148 12.9695 94.0047 12.5457 94.8025 12.2466C95.6002 11.9474 96.4477 11.7978 97.3452 11.7978C98.2423 11.7978 99.0901 11.9474 99.8875 12.2466C100.686 12.5457 101.375 12.9695 101.957 13.5179C102.538 14.0663 102.996 14.7312 103.328 15.5122C103.677 16.2767 103.851 17.1326 103.851 18.0799C103.851 19.0273 103.677 19.8915 103.328 20.6725C102.996 21.437 102.538 22.0936 101.957 22.642C101.375 23.1904 100.686 23.6142 99.8875 23.9133C99.0901 24.2124 98.2423 24.362 97.3452 24.362C96.4477 24.362 95.6002 24.2124 94.8025 23.9133C94.0047 23.6142 93.3148 23.1904 92.7333 22.642C92.1515 22.0936 91.6864 21.437 91.3373 20.6725C91.0048 19.8915 90.8387 19.0273 90.8387 18.0799ZM93.8302 18.0799C93.8302 18.5452 93.905 18.994 94.0546 19.4261C94.2207 19.8582 94.4534 20.2404 94.7525 20.5728C95.0682 20.9053 95.4422 21.1711 95.8744 21.3706C96.3063 21.57 96.7968 21.6697 97.3452 21.6697C97.8939 21.6697 98.3836 21.57 98.8162 21.3706C99.2478 21.1711 99.6136 20.9053 99.9126 20.5728C100.228 20.2404 100.461 19.8582 100.611 19.4261C100.777 18.994 100.86 18.5452 100.86 18.0799C100.86 17.6146 100.777 17.1659 100.611 16.7338C100.461 16.3016 100.228 15.9195 99.9126 15.587C99.6136 15.2546 99.2478 14.9888 98.8162 14.7893C98.3836 14.5899 97.8939 14.4901 97.3452 14.4901C96.7968 14.4901 96.3063 14.5899 95.8744 14.7893C95.4422 14.9888 95.0682 15.2546 94.7525 15.587C94.4534 15.9195 94.2207 16.3016 94.0546 16.7338C93.905 17.1659 93.8302 17.6146 93.8302 18.0799ZM116.125 22.268H116.076C115.643 22.9993 115.062 23.531 114.331 23.8635C113.599 24.1959 112.81 24.362 111.962 24.362C111.032 24.362 110.201 24.2042 109.469 23.8884C108.755 23.556 108.139 23.1073 107.625 22.5422C107.11 21.9771 106.719 21.3124 106.453 20.5479C106.187 19.7835 106.054 18.9608 106.054 18.0799C106.054 17.1991 106.195 16.3764 106.478 15.6119C106.76 14.8475 107.151 14.1827 107.65 13.6177C108.165 13.0526 108.779 12.6122 109.494 12.2964C110.208 11.964 110.99 11.7978 111.838 11.7978C112.402 11.7978 112.902 11.856 113.333 11.9723C113.765 12.0887 114.148 12.2383 114.48 12.4211C114.812 12.6039 115.095 12.8033 115.328 13.0193C115.56 13.2188 115.752 13.4182 115.901 13.6177H115.976V5.21655H118.967V24.0629H116.125V22.268ZM109.045 18.0799C109.045 18.5452 109.121 18.994 109.27 19.4261C109.436 19.8582 109.668 20.2404 109.968 20.5728C110.284 20.9053 110.657 21.1711 111.09 21.3706C111.522 21.57 112.012 21.6697 112.561 21.6697C113.109 21.6697 113.599 21.57 114.031 21.3706C114.464 21.1711 114.829 20.9053 115.128 20.5728C115.444 20.2404 115.677 19.8582 115.826 19.4261C115.993 18.994 116.076 18.5452 116.076 18.0799C116.076 17.6146 115.993 17.1659 115.826 16.7338C115.677 16.3016 115.444 15.9195 115.128 15.587C114.829 15.2546 114.464 14.9888 114.031 14.7893C113.599 14.5899 113.109 14.4901 112.561 14.4901C112.012 14.4901 111.522 14.5899 111.09 14.7893C110.657 14.9888 110.284 15.2546 109.968 15.587C109.668 15.9195 109.436 16.3016 109.27 16.7338C109.121 17.1659 109.045 17.6146 109.045 18.0799ZM129.833 22.4176H129.759C129.326 23.0989 128.778 23.5975 128.114 23.9133C127.449 24.2124 126.717 24.362 125.92 24.362C125.371 24.362 124.831 24.2872 124.299 24.1377C123.784 23.9881 123.318 23.7638 122.903 23.4647C122.505 23.1654 122.18 22.7915 121.931 22.3428C121.682 21.8941 121.557 21.3706 121.557 20.7723C121.557 20.1241 121.673 19.5757 121.906 19.1269C122.139 18.6617 122.447 18.2794 122.828 17.9803C123.227 17.6645 123.684 17.4152 124.199 17.2324C124.715 17.0495 125.246 16.9166 125.795 16.8335C126.36 16.7338 126.925 16.6756 127.49 16.659C128.056 16.6257 128.587 16.6092 129.085 16.6092H129.833V16.2851C129.833 15.5372 129.576 14.9805 129.061 14.6148C128.545 14.2326 127.889 14.0415 127.091 14.0415C126.46 14.0415 125.869 14.1578 125.321 14.3904C124.773 14.6065 124.299 14.9057 123.9 15.2879L122.329 13.7174C122.994 13.036 123.767 12.5457 124.648 12.2466C125.545 11.9474 126.467 11.7978 127.415 11.7978C128.263 11.7978 128.978 11.8975 129.559 12.097C130.141 12.2798 130.623 12.5207 131.005 12.8199C131.387 13.119 131.678 13.4681 131.877 13.8669C132.094 14.2491 132.243 14.6397 132.326 15.0386C132.426 15.4374 132.484 15.828 132.5 16.2103C132.518 16.5759 132.526 16.9 132.526 17.1825V24.0629H129.833V22.4176ZM129.659 18.7032H129.036C128.621 18.7032 128.155 18.7198 127.639 18.753C127.125 18.7863 126.634 18.8693 126.168 19.0023C125.72 19.1186 125.338 19.3014 125.022 19.5507C124.706 19.7835 124.548 20.1158 124.548 20.5479C124.548 20.8305 124.607 21.0714 124.723 21.2709C124.856 21.4537 125.022 21.6115 125.221 21.7445C125.421 21.8775 125.645 21.9771 125.895 22.0436C126.144 22.0935 126.393 22.1184 126.643 22.1184C127.673 22.1184 128.429 21.8775 128.911 21.3955C129.409 20.8969 129.659 20.2239 129.659 19.3762V18.7032ZM135.795 5.21655H138.786V24.0629H135.795V5.21655Z" fill="#4B4B4C"/>
</g>
</g>
<defs>
<clipPath id="clip0_2001_1032">
<rect width="140" height="30" fill="white" transform="translate(0.25 0.375)"/>
</clipPath>
</defs>
</svg>
