<svg width="22" height="22" viewBox="0 0 22 22" fill="none" xmlns="http://www.w3.org/2000/svg">
<g clip-path="url(#clip0_2001_1568)">
<path d="M20.5017 10.6356C20.5933 5.38966 16.4149 1.06279 11.169 0.971218C5.92306 0.87965 1.59618 5.05807 1.50461 10.304C1.41304 15.5499 5.59146 19.8768 10.8374 19.9683C16.0833 20.0599 20.4102 15.8815 20.5017 10.6356Z" fill="url(#paint0_linear_2001_1568)"/>
<path d="M20.5017 10.6356C20.5933 5.38966 16.4149 1.06279 11.169 0.971218C5.92306 0.87965 1.59618 5.05807 1.50461 10.304C1.41304 15.5499 5.59146 19.8768 10.8374 19.9683C16.0833 20.0599 20.4102 15.8815 20.5017 10.6356Z" stroke="url(#paint1_radial_2001_1568)"/>
<mask id="mask0_2001_1568" style="mask-type:luminance" maskUnits="userSpaceOnUse" x="3" y="2" width="17" height="17">
<path d="M19.0029 2.46973H3.00293V18.4697H19.0029V2.46973Z" fill="white"/>
</mask>
<g mask="url(#mask0_2001_1568)">
<path d="M8.33609 13.1367C8.33609 13.5049 8.63457 13.8034 9.00276 13.8034C9.37095 13.8034 9.66943 13.5049 9.66943 13.1367C9.66943 11.5978 10.01 10.6418 10.5922 10.0595C11.1745 9.47726 12.1305 9.13672 13.6695 9.13672C14.0376 9.13672 14.3361 8.83825 14.3361 8.47006C14.3361 8.10187 14.0376 7.80339 13.6695 7.80339C12.1305 7.80339 11.1745 7.46285 10.5922 6.8806C10.01 6.29834 9.66942 5.34238 9.66942 3.80339C9.66942 3.4352 9.37095 3.13672 9.00276 3.13672C8.63457 3.13672 8.33609 3.4352 8.33609 3.80339C8.33609 5.34238 7.99555 6.29834 7.4133 6.8806C6.83105 7.46285 5.87508 7.80339 4.33609 7.80339C3.9679 7.80339 3.66943 8.10187 3.66943 8.47006C3.66943 8.83825 3.9679 9.13672 4.33609 9.13672C5.87508 9.13672 6.83105 9.47726 7.4133 10.0595C7.99555 10.6418 8.33609 11.5978 8.33609 13.1367Z" fill="white"/>
<path d="M14.0027 17.1366C14.0027 17.5048 14.3012 17.8033 14.6694 17.8033C15.0375 17.8033 15.336 17.5048 15.336 17.1366C15.336 16.1764 15.5492 15.6371 15.8595 15.3268C16.1698 15.0165 16.7091 14.8033 17.6694 14.8033C18.0375 14.8033 18.336 14.5048 18.336 14.1366C18.336 13.7685 18.0375 13.47 17.6694 13.47C16.7091 13.47 16.1698 13.2568 15.8595 12.9465C15.5492 12.6362 15.336 12.0969 15.336 11.1366C15.336 10.7685 15.0375 10.47 14.6694 10.47C14.3012 10.47 14.0027 10.7685 14.0027 11.1366C14.0027 12.0969 13.7895 12.6362 13.4792 12.9465C13.1689 13.2568 12.6296 13.47 11.6694 13.47C11.3012 13.47 11.0027 13.7685 11.0027 14.1366C11.0027 14.5048 11.3012 14.8033 11.6694 14.8033C12.6296 14.8033 13.1689 15.0165 13.4792 15.3268C13.7895 15.6371 14.0027 16.1764 14.0027 17.1366Z" fill="white"/>
</g>
</g>
<defs>
<linearGradient id="paint0_linear_2001_1568" x1="11.1866" y1="0.462799" x2="10.8376" y2="20.4598" gradientUnits="userSpaceOnUse">
<stop stop-color="#C495FF"/>
<stop offset="1" stop-color="#BF68CF"/>
</linearGradient>
<radialGradient id="paint1_radial_2001_1568" cx="0" cy="0" r="1" gradientUnits="userSpaceOnUse" gradientTransform="translate(10.3375 0.447976) rotate(88.5684) scale(20.018 21.9333)">
<stop stop-color="white" stop-opacity="0.48"/>
<stop offset="1" stop-color="white" stop-opacity="0.04"/>
</radialGradient>
<clipPath id="clip0_2001_1568">
<rect width="21" height="21" fill="white" transform="translate(0.830078 0.296875)"/>
</clipPath>
</defs>
</svg>
