<svg width="141" height="31" viewBox="0 0 141 31" fill="none" xmlns="http://www.w3.org/2000/svg">
<g clip-path="url(#clip0_2001_1004)">
<mask id="mask0_2001_1004" style="mask-type:luminance" maskUnits="userSpaceOnUse" x="0" y="0" width="141" height="31">
<path d="M140.25 0.375H0.25V30.375H140.25V0.375Z" fill="white"/>
</mask>
<g mask="url(#mask0_2001_1004)">
<path fill-rule="evenodd" clip-rule="evenodd" d="M33.1061 13.9335C33.4934 14.6041 33.4934 15.4304 33.1061 16.1011L25.9034 28.5758C25.5161 29.2464 24.8005 29.6596 24.026 29.6596H9.62056C8.84609 29.6596 8.13044 29.2464 7.74313 28.5758L0.540482 16.1011C0.153173 15.4304 0.153173 14.6041 0.540482 13.9335L7.74313 1.45881C8.13044 0.788149 8.84609 0.375 9.62056 0.375H24.026C24.8005 0.375 25.5161 0.788149 25.9034 1.45881L33.1061 13.9335ZM26.7483 9.6804C27.0379 9.61133 27.2821 9.90237 27.1637 10.1755L25.1762 14.7603C25.0694 15.0068 24.7406 15.0547 24.5679 14.8489L23.8296 13.969L19.2248 17.9953C18.7756 18.388 18.0936 18.344 17.6988 17.8969L14.6469 14.4406L11.1368 17.496C11.1799 17.6724 11.2027 17.8568 11.2027 18.0466C11.2027 19.3234 10.1675 20.3587 8.89042 20.3587C7.61345 20.3587 6.57812 19.3234 6.57812 18.0466C6.57812 16.7695 7.61345 15.7344 8.89042 15.7344C9.17309 15.7344 9.44392 15.785 9.69423 15.8779L14.0354 12.099C14.4846 11.708 15.1653 11.7527 15.5595 12.1992L18.6098 15.6535L22.4358 12.3081L21.6949 11.4251C21.5222 11.2194 21.6264 10.9038 21.8877 10.8415L26.7483 9.6804Z" fill="#4B4B4C"/>
<path d="M47.5238 22.9053C46.2954 22.9053 45.1032 22.7536 43.947 22.4501C42.7909 22.1466 41.8515 21.742 41.1289 21.2362L42.538 18.0715C43.2172 18.5195 44.0048 18.8807 44.9008 19.1553C45.7968 19.4299 46.6784 19.5672 47.5455 19.5672C49.193 19.5672 50.0168 19.1553 50.0168 18.3316C50.0168 17.8981 49.7783 17.5802 49.3014 17.3779C48.839 17.1611 48.0875 16.9371 47.0469 16.7059C45.9052 16.4602 44.9514 16.2001 44.1855 15.9255C43.4195 15.6365 42.762 15.1813 42.2128 14.5599C41.6636 13.9386 41.389 13.1004 41.389 12.0455C41.389 11.1207 41.6419 10.2897 42.1478 9.55274C42.6536 8.80129 43.4051 8.20881 44.4022 7.77529C45.4139 7.34176 46.6495 7.125 48.1091 7.125C49.1063 7.125 50.089 7.24061 51.0573 7.47182C52.0256 7.68858 52.8782 8.01372 53.6153 8.44725L52.2929 11.6337C50.8478 10.8533 49.4459 10.4631 48.0875 10.4631C47.2348 10.4631 46.6134 10.5932 46.2232 10.8533C45.833 11.099 45.6379 11.4241 45.6379 11.8287C45.6379 12.2334 45.8691 12.5368 46.3316 12.7391C46.794 12.9415 47.5383 13.151 48.5644 13.3678C49.7205 13.6134 50.6743 13.8808 51.4258 14.1698C52.1918 14.4443 52.8493 14.8923 53.3985 15.5137C53.9621 16.1206 54.2439 16.9516 54.2439 18.0065C54.2439 18.9169 53.991 19.7406 53.4852 20.4776C52.9794 21.2145 52.2207 21.807 51.2091 22.255C50.1974 22.6885 48.969 22.9053 47.5238 22.9053ZM60.1698 10.8316H55.5091V7.42847H69.101V10.8316H64.462V22.6018H60.1698V10.8316ZM81.0298 19.6539H74.6132L73.4209 22.6018H69.042L75.7405 7.42847H79.9676L86.6877 22.6018H82.2221L81.0298 19.6539ZM79.7725 16.4891L77.8215 11.6337L75.8705 16.4891H79.7725ZM91.2973 10.8316H86.6366V7.42847H100.229V10.8316H95.5895V22.6018H91.2973V10.8316ZM108.043 22.9053C106.814 22.9053 105.622 22.7536 104.466 22.4501C103.31 22.1466 102.371 21.742 101.648 21.2362L103.057 18.0715C103.736 18.5195 104.524 18.8807 105.42 19.1553C106.316 19.4299 107.197 19.5672 108.065 19.5672C109.712 19.5672 110.536 19.1553 110.536 18.3316C110.536 17.8981 110.297 17.5802 109.82 17.3779C109.358 17.1611 108.607 16.9371 107.566 16.7059C106.424 16.4602 105.47 16.2001 104.705 15.9255C103.939 15.6365 103.281 15.1813 102.732 14.5599C102.183 13.9386 101.908 13.1004 101.908 12.0455C101.908 11.1207 102.161 10.2897 102.667 9.55274C103.173 8.80129 103.924 8.20881 104.921 7.77529C105.933 7.34176 107.169 7.125 108.628 7.125C109.625 7.125 110.608 7.24061 111.576 7.47182C112.545 7.68858 113.397 8.01372 114.134 8.44725L112.812 11.6337C111.367 10.8533 109.965 10.4631 108.607 10.4631C107.754 10.4631 107.132 10.5932 106.742 10.8533C106.352 11.099 106.157 11.4241 106.157 11.8287C106.157 12.2334 106.388 12.5368 106.851 12.7391C107.313 12.9415 108.057 13.151 109.083 13.3678C110.24 13.6134 111.193 13.8808 111.945 14.1698C112.711 14.4443 113.368 14.8923 113.918 15.5137C114.481 16.1206 114.763 16.9516 114.763 18.0065C114.763 18.9169 114.51 19.7406 114.004 20.4776C113.498 21.2145 112.74 21.807 111.728 22.255C110.716 22.6885 109.488 22.9053 108.043 22.9053ZM117.671 7.42847H121.963V22.6018H117.671V7.42847ZM136.108 14.69H139.902V20.9761C139.035 21.5975 138.038 22.0744 136.91 22.4067C135.783 22.7391 134.656 22.9053 133.529 22.9053C131.939 22.9053 130.508 22.5729 129.236 21.9082C127.965 21.229 126.967 20.2897 126.245 19.0903C125.522 17.8909 125.161 16.5325 125.161 15.0151C125.161 13.4978 125.522 12.1394 126.245 10.94C126.967 9.7406 127.972 8.80852 129.258 8.14378C130.544 7.46459 131.997 7.125 133.615 7.125C135.032 7.125 136.303 7.36344 137.431 7.84032C138.558 8.31719 139.497 9.00361 140.249 9.89956L137.517 12.3706C136.491 11.2435 135.263 10.6799 133.832 10.6799C132.531 10.6799 131.484 11.0773 130.689 11.8721C129.894 12.6524 129.496 13.7001 129.496 15.0151C129.496 15.8533 129.677 16.6047 130.038 17.2695C130.4 17.9198 130.906 18.4328 131.556 18.8085C132.206 19.1698 132.95 19.3504 133.789 19.3504C134.612 19.3504 135.386 19.1842 136.108 18.8518V14.69Z" fill="#4B4B4C"/>
</g>
</g>
<defs>
<clipPath id="clip0_2001_1004">
<rect width="140" height="30" fill="white" transform="translate(0.25 0.375)"/>
</clipPath>
</defs>
</svg>
